<?xml version="1.0" standalone="no"?>
<!DOCTYPE svg PUBLIC "-//W3C//DTD SVG 1.1//EN" "http://www.w3.org/Graphics/SVG/1.1/DTD/svg11.dtd" >
<svg xmlns="http://www.w3.org/2000/svg">
<metadata></metadata>
<defs>
<font id="telluralregular" horiz-adv-x="1060" >
<font-face units-per-em="2048" ascent="1638" descent="-410" />
<missing-glyph horiz-adv-x="500" />
<glyph horiz-adv-x="2048" />
<glyph horiz-adv-x="2048" />
<glyph unicode="&#xd;" horiz-adv-x="1302" />
<glyph unicode=" "  horiz-adv-x="500" />
<glyph unicode="&#x09;" horiz-adv-x="500" />
<glyph unicode="&#xa0;" horiz-adv-x="500" />
<glyph unicode="!" horiz-adv-x="661" d="M193 1393q0 40 47 43h156q47 -3 47 -43l-57 -962q-10 -34 -41 -34h-54q-31 0 -41 34zM217 43v101q0 51 51 51h100q51 0 51 -51v-101q0 -50 -51 -50h-100q-51 0 -51 50z" />
<glyph unicode="&#x22;" horiz-adv-x="708" d="M91 1022v373q0 30 37 33h122q37 -3 37 -33v-373q0 -30 -37 -33h-122q-37 3 -37 33zM421 1022v373q0 30 37 33h122q37 -3 37 -33v-373q0 -30 -37 -33h-122q-37 3 -37 33z" />
<glyph unicode="#" horiz-adv-x="1103" d="M-5 431q0 3 1 7l16 65q7 32 50 32h188l15 239h-170q-30 0 -30 21q0 6 2 12l17 65q9 33 39 33h150l20 332q4 47 55 47h101q47 0 47 -40v-7l-19 -332h206l21 332q4 47 55 47h101q47 0 47 -40v-7l-20 -332h186q34 0 35 -25q0 -4 -1 -8l-13 -65q-8 -33 -45 -33h-170l-16 -239 h149q25 0 25 -22q0 -5 -1 -10l-14 -65q-7 -32 -32 -32h-135l-21 -361q-4 -52 -55 -52l-101 1q-47 0 -47 45v7l21 360h-206l-23 -361q-4 -52 -55 -52h-101q-47 0 -47 45v7l22 361h-206q-40 0 -41 25zM454 535h206l15 239h-206z" />
<glyph unicode="$" horiz-adv-x="979" d="M180 314q0 33 49 57q68 30 97 30q24 0 40 -16q38 -56 125 -56q109 11 109 128q-2 104 -202 212t-203 268q5 219 212 261v201q0 30 37 33h92q37 -3 37 -33v-205q106 -25 166 -101q12 -17 12 -34q0 -31 -39 -62q-54 -31 -78 -31q-21 0 -34 15q-37 56 -111 56 q-85 -6 -88 -87q2 -78 198 -182.5t200 -296.5q-5 -254 -226 -302v-198q0 -30 -37 -33h-92q-37 3 -37 33v194q-121 20 -198 98q-29 26 -29 51z" />
<glyph unicode="%" horiz-adv-x="1521" d="M50 990q18 334 301 334q282 0 298 -334q-17 -306 -298 -306q-283 0 -301 306zM224 992q4 -147 126 -147q120 0 128 147q-8 170 -128 170q-122 0 -126 -170zM260 21q0 13 15 35l812 1222q24 32 48 32h118q28 0 28 -17q0 -13 -15 -35l-812 -1222q-24 -32 -48 -32h-118 q-28 0 -28 17zM872 325q16 306 298 306t301 -306q-19 -324 -301 -324t-298 324zM1043 323q8 -160 128 -160q122 0 125 160q-3 147 -125 147q-120 0 -128 -147z" />
<glyph unicode="&#x26;" horiz-adv-x="1239" d="M54 416q10 304 222 493q-128 117 -128 264q0 39 10 80q65 176 239 178q165 0 238 -117q33 -70 33 -137q0 -149 -147 -276l287 -371q45 183 254 218q43 0 66 -38l36 -56q7 -11 7 -23q0 -31 -45 -41q-123 0 -198 -236l229 -289q15 -11 15 -34q0 -27 -56 -29h-57 q-82 0 -117 41l-104 133q-88 -179 -380 -179q-371 34 -404 419zM244 433q25 -231 221 -258q165 0 256 141l-336 443q-133 -148 -141 -326zM357 1180q0 -81 65 -142q58 55 61 131q-4 92 -70 92q-49 -10 -55 -68q-1 -7 -1 -13z" />
<glyph unicode="'" horiz-adv-x="378" d="M91 1022v373q0 30 37 33h122q37 -3 37 -33v-373q0 -30 -37 -33h-122q-37 3 -37 33z" />
<glyph unicode="(" horiz-adv-x="712" d="M103 714q0 613 537 888q42 0 42 -43v-101q0 -46 -48 -53q-287 -192 -287 -691q0 -460 287 -691q48 -7 48 -53v-101q0 -43 -42 -43q-537 274 -537 888z" />
<glyph unicode=")" horiz-adv-x="712" d="M30 -30q0 46 48 53q287 231 287 691q0 499 -287 691q-48 7 -48 53v101q0 43 42 43q537 -275 537 -888q0 -614 -537 -888q-42 0 -42 43v101z" />
<glyph unicode="*" horiz-adv-x="989" d="M90 1112q0 27 22 67q37 70 78 70q11 0 23 -4q53 -24 211 -128q-37 190 -38 250q0 58 107 58q106 0 106 -59q-2 -59 -39 -254q163 109 217 133q11 4 22 4q41 0 79 -70q21 -40 21 -67q0 -34 -32 -49q-60 -28 -251 -68q131 -119 169 -166q12 -15 12 -32q0 -36 -56 -82 q-46 -38 -79 -38q-26 0 -44 25l-109 183h-24l-108 -182q-19 -26 -45 -26q-33 0 -78 38q-56 46 -56 82q0 17 12 32q38 47 168 165q-195 41 -254 69q-34 15 -34 49z" />
<glyph unicode="+" d="M75 542v82q1 47 33 47h324v334q0 30 47 33h102q47 -3 47 -33v-334h323q32 0 33 -47v-82q-1 -47 -33 -47h-323v-333q0 -30 -47 -33h-102q-47 3 -47 33v333h-324q-32 0 -33 47z" />
<glyph unicode="," horiz-adv-x="592" d="M180 43v101q0 51 50 51h101q80 -25 80 -141v-14q0 -154 -152 -303q-9 -6 -20 -6q-8 0 -42 15q-11 5 -11 16q0 8 7 20q77 98 90 211h-53q-50 0 -50 50z" />
<glyph unicode="-" horiz-adv-x="1005" d="M128 524v102q3 37 43 37h663q40 0 43 -37v-102q-3 -37 -43 -37h-663q-40 0 -43 37z" />
<glyph unicode="." horiz-adv-x="562" d="M180 43v101q0 51 50 51h101q51 0 51 -51v-101q0 -50 -51 -50h-101q-50 0 -50 50z" />
<glyph unicode="/" horiz-adv-x="1124" d="M202 16q0 4 1 9l512 1370q14 37 54 37h123q30 0 30 -20q0 -5 -2 -12l-512 -1370q-14 -37 -64 -37h-103q-39 0 -39 23z" />
<glyph unicode="0" d="M64 592q0 598 467 598q465 0 465 -597v-1q-1 -599 -465 -599q-467 0 -467 599zM276 591q0 -420 252 -420q247 0 247 420q0 419 -247 419q-252 0 -252 -419z" />
<glyph unicode="1" d="M156 659q0 9 4 18l277 488h267v-1125q-3 -47 -53 -47h-103q-50 0 -53 47v825l-145 -277q-13 -24 -41 -24q-19 0 -45 12l-58 27q-50 24 -50 56z" />
<glyph unicode="2" d="M94 0q12 306 317 451q293 139 293 373q-13 198 -186 198q-198 -2 -206 -275q0 -51 -67 -51h-75q-50 0 -50 48q23 444 405 449q367 -1 386 -352q0 -313 -233 -450q-300 -121 -346 -205h601q30 0 33 -37v-112q-3 -34 -36 -37h-836z" />
<glyph unicode="3" d="M92 72q0 18 15 29l65 47q18 13 30 13q10 0 16 -8q103 -136 327 -136q195 31 214 213q0 234 -230 262h-89q-44 1 -47 42v82q3 53 47 54l107 -1q186 18 186 190q-16 159 -188 159q-168 -1 -254 -110q-7 -9 -18 -9q-13 0 -30 11l-65 43q-16 10 -16 26q0 18 19 43 q125 171 370 171q354 -4 391 -346q0 -185 -146 -270q171 -99 171 -330q-26 -368 -418 -403q-326 0 -438 181q-19 28 -19 47z" />
<glyph unicode="4" d="M58 113v99l515 953h267v-872h119q42 -2 42 -46v-89q0 -45 -42 -45h-119v-228q-3 -37 -53 -37h-103q-50 0 -53 37v228h-573zM281 293h350v626z" />
<glyph unicode="5" d="M108 647l174 518h531q33 -2 33 -32v-100q0 -32 -30 -37h-375l-97 -248q63 15 125 20q425 0 473 -415q0 -489 -427 -507q-280 0 -382 112q-10 12 -10 26q0 10 5 21l80 112q15 20 28 20q10 0 20 -14q74 -85 239 -95q252 36 252 287q-20 259 -306 270q-88 -3 -163 -25v-1h-1 z" />
<glyph unicode="6" d="M97 551q23 611 455 862q23 12 46 12q26 0 52 -15q116 -68 116 -95q0 -10 -17 -14q-366 -148 -438 -553q72 94 234 96q419 0 419 -462q-30 -389 -439 -389q-428 14 -428 558zM308 466q6 -285 237 -289q202 0 202 237q0 239 -219 240q-206 -20 -220 -188z" />
<glyph unicode="7" d="M78 1033v90q0 40 33 42h871q0 -386 -288 -729.5t-308 -539.5q-4 -46 -53 -46h-103q-49 0 -53 46q19 258 285 557.5t266 532.5h-620q-30 5 -30 47z" />
<glyph unicode="8" d="M102 402q0 271 214 382q-145 96 -154 281q28 355 366 362q359 0 359 -332q0 -233 -151 -311q204 -64 221 -382q0 -408 -429 -409q-424 3 -426 409zM299 409q15 -250 225 -250q228 13 228 233q-29 285 -257 285q-193 -45 -196 -268zM359 1046q35 -194 214 -194 q116 53 121 235q0 175 -170 175q-165 -9 -165 -216z" />
<glyph unicode="9" d="M96 809q30 389 439 389q428 -14 428 -558q-23 -551 -455 -782q-23 -12 -46 -12q-26 0 -52 15q-116 68 -116 95q0 10 17 14q306 108 438 473q-72 -94 -234 -96q-419 0 -419 462zM313 777q0 -239 219 -240q206 20 220 188q-6 285 -237 289q-202 0 -202 -237z" />
<glyph unicode=":" horiz-adv-x="562" d="M180 43v101q0 51 50 51h101q51 0 51 -51v-101q0 -50 -51 -50h-101q-50 0 -50 50zM180 944v101q0 50 50 50h101q51 0 51 -50v-101q0 -51 -51 -51h-101q-50 0 -50 51z" />
<glyph unicode=";" horiz-adv-x="591" d="M180 43v101q0 51 50 51h101q80 -25 80 -141v-14q0 -154 -152 -303q-9 -6 -20 -6q-8 0 -42 15q-11 5 -11 16q0 8 7 20q77 98 90 211h-53q-50 0 -50 50zM180 943v101q0 51 50 51h101q51 0 51 -51v-101q0 -50 -51 -50h-101q-50 0 -50 50z" />
<glyph unicode="&#x3c;" d="M75 490v112q2 32 42 53l838 286q28 0 29 -49v-92q0 -54 -43 -63l-574 -191l574 -191q43 -8 43 -63v-92q-1 -48 -30 -48l-838 286q-39 21 -41 52z" />
<glyph unicode="=" d="M75 352v62q3 57 43 57h823q40 0 43 -57v-62q-3 -57 -43 -57h-823q-40 0 -43 57zM75 752v62q3 57 43 57h823q40 0 43 -57v-62q-3 -57 -43 -57h-823q-40 0 -43 57z" />
<glyph unicode="&#x3e;" d="M75 200v92q0 55 43 63l574 191l-574 191q-43 9 -43 63v92q1 49 29 49l838 -286q40 -21 42 -53v-112q-2 -31 -41 -52l-838 -286q-29 0 -30 48z" />
<glyph unicode="?" horiz-adv-x="837" d="M15 1110q52 321 394 332q378 0 398 -342q0 -196 -173 -364t-187 -298q-6 -37 -50 -38h-126q-39 0 -39 38q4 150 185.5 335.5t181.5 303.5q-5 171 -197 171q-140 -12 -181 -180q0 -16 -47 -16q-23 0 -56 4q-103 11 -103 54zM237 43v101q0 51 50 51h101q50 0 50 -51v-101 q0 -50 -50 -50h-101q-50 0 -50 50z" />
<glyph unicode="@" horiz-adv-x="1191" d="M73 691q2 725 542 741q467 0 487 -425v-483q-3 -35 -51 -35h-102q-49 0 -52 45q-67 -62 -213 -83q-212 0 -238 228q0 292 452 315q-3 254 -278 254q-362 -3 -362 -552q40 -492 386 -519q248 0 308 165q0 34 43 34h103q39 0 39 -43v-1q-110 -338 -476 -338 q-548 42 -588 697zM615 697q14 -87 112 -87q68 0 170 54v194q-282 -21 -282 -161z" />
<glyph unicode="A" horiz-adv-x="1232" d="M50 26q0 4 2 14l459 1345q8 19 28.5 33t49.5 14h85q32 0 49 -11q19 -13 28 -36l459 -1345q2 -10 2 -14q0 -33 -58 -33h-53q-70 0 -90 47l-111 325h-508l-111 -325q-20 -47 -89 -47h-83q-59 0 -59 33zM441 509h410l-205 601z" />
<glyph unicode="B" horiz-adv-x="1241" d="M171 0v1378q137 54 344 54q465 0 481 -330q-2 -155 -108 -240q252 -114 252 -440q-9 -422 -576 -422h-393zM380 183q21 -5 167 -5q361 0 372 271q0 250 -242 298h-297v-564zM380 919h211q190 18 197 174q-8 166 -269 166q-126 0 -139 -16v-324z" />
<glyph unicode="C" horiz-adv-x="1240" d="M104 713q9 719 582 719q329 0 459 -242q1 -4 1 -9q0 -29 -62 -65q-47 -27 -77 -27q-16 0 -27 8q-89 149 -273 149q-376 0 -382 -533q6 -534 382 -534q184 0 273 149q11 8 27 8q30 0 77 -27q62 -36 62 -65q0 -5 -1 -9q-130 -242 -459 -242q-573 0 -582 720z" />
<glyph unicode="D" horiz-adv-x="1316" d="M191 0v1405q31 27 344 27q705 0 712 -720q-7 -712 -702 -712h-354zM400 183q5 -5 149 -5q481 0 489 535q-8 535 -489 535q-144 0 -149 -5v-1060z" />
<glyph unicode="E" horiz-adv-x="1162" d="M191 0v1425h845q37 -3 37 -53v-53q0 -60 -37 -63h-636v-447h403q42 0 45 -56v-42q-3 -56 -45 -56h-403v-486h636q37 -3 37 -63v-53q0 -50 -37 -53h-845z" />
<glyph unicode="F" horiz-adv-x="1133" d="M191 40v1385h845q37 -3 37 -53v-53q0 -60 -37 -63h-636v-447h403q42 0 45 -56v-42q-3 -56 -45 -56h-403v-615q-3 -47 -73 -47h-63q-70 0 -73 47z" />
<glyph unicode="G" horiz-adv-x="1309" d="M104 712q10 720 592 720q329 0 459 -242q1 -4 1 -9q0 -29 -62 -65q-47 -27 -77 -27q-16 0 -27 8q-89 149 -273 149q-384 0 -392 -533q8 -534 392 -534q184 0 277 155l2 2v283q3 37 53 37h103q50 0 53 -37v-504q-4 -315 -207 -442q-17 -10 -35 -10q-41 0 -86 52 q-21 26 -21 43t15 27q126 75 126 258q0 12 -1 25v17q-122 -92 -300 -92q-582 0 -592 719z" />
<glyph unicode="H" horiz-adv-x="1310" d="M151 40v1345q3 47 73 47h63q70 0 73 -47v-586h591v586q3 47 73 47h63q70 0 73 -47v-1345q-3 -47 -73 -47h-63q-70 0 -73 47v615h-591v-615q-3 -47 -73 -47h-63q-70 0 -73 47z" />
<glyph unicode="I" horiz-adv-x="549" d="M170 40v1345q3 47 73 47h63q70 0 73 -47v-1345q-3 -47 -73 -47h-63q-70 0 -73 47z" />
<glyph unicode="J" horiz-adv-x="549" d="M-144 -292q2 45 36 46q284 0 284 320v1311q3 47 73 47h63q70 0 73 -47v-1324q0 -487 -487 -498q-42 1 -42 42v103z" />
<glyph unicode="K" horiz-adv-x="1275" d="M171 40v1345q3 47 73 47h63q70 0 73 -47v-614l513 614q41 47 111 47h113q47 0 47 -21q0 -10 -12 -26l-411 -502l511 -843q7 -11 7 -22q0 -25 -52 -25h-103q-69 0 -101 47l-405 669l-218 -268v-401q-3 -47 -73 -47h-63q-70 0 -73 47z" />
<glyph unicode="L" horiz-adv-x="993" d="M191 0v1385q3 47 73 47h63q70 0 73 -47v-1221h503q32 0 35 -56v-52q-3 -56 -35 -56h-712z" />
<glyph unicode="M" horiz-adv-x="1649" d="M144 38v1347q8 47 77 47h148q70 0 88 -47l370 -1037l366 1037q18 47 88 47h148q69 0 77 -47v-1347q0 -45 -69 -45h-63q-69 0 -77 47v1047l-366 -1035q-17 -39 -80 -39h-47q-64 0 -80 39l-371 1039v-1051q-8 -47 -77 -47h-63q-69 0 -69 45z" />
<glyph unicode="N" horiz-adv-x="1364" d="M151 39v1346q2 47 62 47h78q50 0 83 -47l630 -1011v1012q0 46 69 46h63q69 0 77 -47v-1347q0 -45 -68 -45h-54q-58 0 -88 47l-643 1032v-1032q-8 -47 -77 -47h-63q-69 0 -69 46z" />
<glyph unicode="O" horiz-adv-x="1408" d="M91 708q0 724 613 724t613 -724q0 -715 -613 -715t-613 715zM312 708q0 -529 392 -529t392 529q0 538 -392 538t-392 -538z" />
<glyph unicode="P" horiz-adv-x="1222" d="M171 40v1342q97 50 344 50q635 0 654 -464q-18 -459 -654 -459q-103 3 -135 5v-474q-3 -47 -73 -47h-63q-70 0 -73 47zM380 708q15 -15 168 -15q413 10 413 274q-1 272 -414 282q-128 -2 -167 -15v-526z" />
<glyph unicode="Q" horiz-adv-x="1486" d="M140 708q0 724 613 724t613 -724q0 -522 -327 -663q80 -147 300 -151q34 -1 36 -46v-103q0 -41 -42 -42q-399 8 -507 293q-35 -3 -73 -3q-613 0 -613 715zM361 708q0 -529 392 -529t392 529q0 538 -392 538t-392 -538z" />
<glyph unicode="R" horiz-adv-x="1255" d="M171 40v1342q97 50 344 50q635 0 654 -464q-13 -321 -327 -417l310 -511q7 -11 7 -22q0 -25 -52 -25h-93q-69 0 -101 47l-286 473q-53 -4 -112 -4q-103 3 -135 5v-474q-3 -47 -73 -47h-63q-70 0 -73 47zM380 708q15 -15 168 -15q413 10 413 274q-1 272 -414 282 q-128 -2 -167 -15v-526z" />
<glyph unicode="S" horiz-adv-x="995" d="M104 185q0 32 51 57q89 39 120 39q17 0 26 -9q63 -94 212 -94q191 20 191 212q-3 163 -288.5 317.5t-289.5 367.5q8 327 344 357q247 0 363 -147q12 -17 12 -35q0 -33 -42 -67q-65 -37 -88 -37q-10 0 -16 7q-63 94 -192 94q-156 -10 -161 -152q2 -127 282.5 -276 t285.5 -409q-8 -397 -404 -417q-237 0 -373 137q-33 30 -33 55z" />
<glyph unicode="T" horiz-adv-x="1085" d="M60 1317v52q3 56 45 56h875q42 0 45 -56v-52q-3 -56 -45 -56h-333v-1221q-3 -47 -73 -47h-63q-70 0 -73 47v1221h-333q-42 0 -45 56z" />
<glyph unicode="U" horiz-adv-x="1288" d="M129 537v848q3 47 73 47h63q70 0 73 -47v-878q7 -180 100 -252t213 -72t213 72t100 252v878q3 47 73 47h63q70 0 73 -47v-848q-13 -543 -519 -547q-512 4 -525 547z" />
<glyph unicode="V" horiz-adv-x="1277" d="M119 1383q3 47 73 47h64q70 0 73 -47q25 -536 52.5 -867t154.5 -331q197 1 367 327q108 207 108 502q0 170 -36 370q3 47 73 47h63q70 0 73 -47q34 -169 34 -337q0 -426 -174.5 -726t-497.5 -327q-317 0 -359.5 403t-67.5 986z" />
<glyph unicode="W" horiz-adv-x="1871" d="M149 394v991q3 47 73 47h64q70 0 73 -47v-988q5 -201 217 -206q138 0 212 109v4l5 2q83 228 83 456q0 117 -22 234q3 47 73 47h63q70 0 73 -47q24 -135 24 -269q0 -226 -68 -446q40 -90 197 -90q301 7 348 590q1 27 1 53q0 293 -61 551q3 47 73 47h63q70 0 73 -47 q54 -271 64 -502q-3 -879 -583 -886q-197 0 -306 106q-126 -106 -334 -106q-385 13 -405 397z" />
<glyph unicode="X" horiz-adv-x="1169" d="M30 17q0 9 8 23l427 673l-427 672q-8 14 -8 23q0 24 51 24h93q70 0 103 -47l308 -484l307 484q33 47 103 47h93q51 0 51 -24q0 -9 -8 -23l-427 -672l427 -673q8 -14 8 -23q0 -24 -51 -24h-93q-70 0 -103 47l-307 484l-308 -484q-33 -47 -103 -47h-93q-51 0 -51 24z" />
<glyph unicode="Y" horiz-adv-x="1090" d="M-10 1402q0 3 1 6q4 24 55 24h93q70 0 94 -47l317 -742l317 742q24 47 94 47h93q51 0 55 -24q1 -3 1 -6q0 -7 -4 -17l-450 -1045v-300q-3 -47 -73 -47h-63q-70 0 -73 47v296l-453 1049q-4 10 -4 17z" />
<glyph unicode="Z" horiz-adv-x="1151" d="M75 1309v63q0 50 47 53h844v-124l-637 -1132h699q47 -3 47 -53v-63q0 -50 -47 -53h-935v132l632 1124h-603q-47 3 -47 53z" />
<glyph unicode="[" horiz-adv-x="791" d="M177 -235v1864h504q51 0 56 -36v-92q-5 -36 -56 -36h-283v-1536h283q51 0 56 -37v-91q-5 -36 -56 -36h-504z" />
<glyph unicode="\" horiz-adv-x="1124" d="M202 1412q0 20 30 20h123q40 0 54 -37l512 -1370q1 -5 1 -9q0 -23 -39 -23h-103q-50 0 -64 37l-512 1370q-2 7 -2 12z" />
<glyph unicode="]" horiz-adv-x="791" d="M54 -108q5 37 56 37h283v1536h-283q-51 0 -56 36v92q5 36 56 36h504v-1864h-504q-51 0 -56 36v91z" />
<glyph unicode="^" horiz-adv-x="958" d="M84 553l286 838q21 39 52 41h112q32 -2 53 -42l286 -838q0 -28 -49 -29h-92q-54 0 -63 43l-191 574l-191 -574q-8 -43 -63 -43h-92q-48 1 -48 30z" />
<glyph unicode="_" horiz-adv-x="701" d="M-170 -79q2 27 30 27h982q28 0 29 -27v-53q-1 -27 -29 -27h-982q-28 0 -30 27v53z" />
<glyph unicode="`" horiz-adv-x="1099" d="M365 1423q0 45 102 45q111 -1 129 -44l127 -204q2 -5 2 -10q0 -15 -20 -17q-7 -1 -13 -1q-12 0 -22 3q-176 52 -304 220q-1 4 -1 8z" />
<glyph unicode="a" horiz-adv-x="1201" d="M131 539q47 537 509 557q325 0 418 -173v-883q-3 -47 -73 -47h-63q-70 0 -73 47v110q-85 -137 -280 -157q-438 0 -438 546zM328 541q0 -343 228 -343q226 1 293 280v360q-60 69 -216 69q-276 -10 -305 -366z" />
<glyph unicode="b" horiz-adv-x="1157" d="M139 0v1485q3 47 73 47h63q70 0 73 -47v-546q85 137 280 157q438 0 438 -546q-47 -537 -509 -557q-65 0 -121 7h-297zM348 251q60 -69 216 -69q276 10 305 366q0 343 -228 343q-226 -1 -293 -280v-360z" />
<glyph unicode="c" horiz-adv-x="1143" d="M132 547q2 543 490 553q300 -6 416 -212q5 -9 5 -18q0 -14 -16 -24l-119 -55q-14 -5 -25 -5q-17 0 -24 13q-73 113 -237 113q-266 0 -274 -365q8 -359 274 -359q164 0 237 113q7 13 24 13q11 0 25 -5l119 -55q16 -10 16 -24q0 -9 -5 -18q-116 -206 -416 -212 q-488 10 -490 547z" />
<glyph unicode="d" horiz-adv-x="1208" d="M114 539q47 537 509 557q120 0 209 -24v413q3 47 73 47h63q70 0 73 -47v-1445q-3 -47 -73 -47h-63q-70 0 -73 47v110q-85 -137 -280 -157q-438 0 -438 546zM311 541q0 -343 228 -343q226 1 293 280v360q-60 69 -216 69q-276 -10 -305 -366z" />
<glyph unicode="e" horiz-adv-x="1143" d="M132 555q32 532 500 542q330 -6 365 -284q-10 -333 -479 -355q-89 0 -181 11q43 -292 285 -292q164 0 237 123q7 13 24 13q11 0 25 -5l119 -55q16 -10 16 -24q0 -9 -5 -18q-116 -206 -416 -212q-488 10 -490 556zM334 650q100 -26 195 -26q67 0 133 18q157 43 157 157v6 q-23 123 -197 123q-241 -20 -288 -278z" />
<glyph unicode="f" horiz-adv-x="698" d="M60 1000v40q0 46 29 48h137v136q32 363 389 363q66 0 110 -17q43 -10 43 -32q0 -21 -47 -116q-11 -30 -30 -30q-4 0 -7 2q-25 6 -66 7q-180 0 -183 -235v-78h174q29 -2 29 -48v-40q0 -45 -29 -47h-174v-913q-3 -47 -73 -47h-63q-70 0 -73 47v913h-137q-29 2 -29 47z" />
<glyph unicode="g" horiz-adv-x="1167" d="M111 539q47 537 509 557q325 0 418 -173v-853h-1q-17 -496 -546 -507q-42 1 -42 42v103q2 45 36 46q324 6 344 320v76q-85 -137 -280 -157q-438 0 -438 546zM308 541q0 -343 228 -343q226 1 293 280v360q-60 69 -216 69q-276 -10 -305 -366z" />
<glyph unicode="h" horiz-adv-x="1252" d="M179 40v1445q3 47 73 47h63q70 0 73 -47v-546q85 137 280 157q429 0 438 -523h2v-533q-3 -47 -73 -47h-63q-70 0 -73 47v537q0 314 -218 314q-226 -1 -293 -280v-571q-3 -47 -73 -47h-63q-70 0 -73 47z" />
<glyph unicode="i" horiz-adv-x="564" d="M177 40v1008q3 47 73 47h63q70 0 73 -47v-1008q-3 -47 -73 -47h-63q-70 0 -73 47zM177 1342v101q0 51 70 51h69q71 0 71 -51v-101q0 -50 -71 -50h-69q-70 0 -70 50z" />
<glyph unicode="j" horiz-adv-x="592" d="M-113 -292q2 45 36 46q284 0 284 320v974q3 47 73 47h63q70 0 73 -47v-987q0 -487 -487 -498q-42 1 -42 42v103zM207 1342v101q0 51 70 51h69q70 0 70 -51v-101q0 -50 -70 -50h-69q-70 0 -70 50z" />
<glyph unicode="k" horiz-adv-x="1040" d="M177 40v1445q3 47 73 47h63q70 0 73 -47v-855l292 429q41 47 110 47h83q47 0 47 -21q0 -10 -11 -26l-267 -402l369 -617q11 -16 11 -26q0 -21 -47 -21h-103q-69 0 -110 47l-260 455l-114 -165v-290q-3 -47 -73 -47h-63q-70 0 -73 47z" />
<glyph unicode="l" horiz-adv-x="659" d="M147 320v1165q3 47 73 47h63q70 0 73 -47v-1154q0 -136 121 -136q54 0 79 10q2 1 3 1q53 0 53 -74v-5q-3 -112 -41 -121q-42 -10 -95 -10q-320 0 -329 324z" />
<glyph unicode="m" horiz-adv-x="1788" d="M165 40v1008q3 47 73 47h63q70 0 73 -47v-136q94 183 303 183q211 0 297 -179q107 179 313 179q356 0 356 -512v-543q-3 -47 -73 -47h-63q-70 0 -73 47v501q0 365 -182 365q-189 -1 -219 -359v-507q-3 -47 -73 -47h-63q-70 0 -73 47v501q0 365 -202 365 q-192 -2 -248 -332v-534q-3 -47 -73 -47h-63q-70 0 -73 47z" />
<glyph unicode="n" horiz-adv-x="1201" d="M137 40v1008q3 47 63 47h83q60 0 63 -47v-109q85 137 280 157q429 0 438 -523h2v-533q-3 -47 -73 -47h-63q-70 0 -73 47v537q0 314 -218 314q-226 -1 -293 -280v-571q-3 -47 -73 -47h-63q-70 0 -73 47z" />
<glyph unicode="o" horiz-adv-x="1146" d="M91 552q6 545 482 551q476 -6 482 -551q-6 -545 -482 -551q-476 6 -482 551zM307 552q8 -373 266 -373t266 373q-8 373 -266 373t-266 -373z" />
<glyph unicode="p" horiz-adv-x="1205" d="M152 166v853h1v29q3 47 73 47h63q70 0 73 -47v-107q85 135 279 155q438 0 438 -546q-47 -537 -509 -557q-120 0 -208 23v-407q-4 -46 -73 -46h-63q-69 0 -73 46v555q-1 1 -1 2zM362 250q60 -68 215 -68q276 10 305 366q0 343 -228 343q-224 -1 -292 -276v-365z" />
<glyph unicode="q" horiz-adv-x="1180" d="M126 539q47 537 509 557q325 0 418 -173v-1313q-3 -47 -73 -47h-63q-70 0 -73 47v540q-85 -137 -280 -157q-438 0 -438 546zM323 541q0 -343 228 -343q226 1 293 280v360q-60 69 -216 69q-276 -10 -305 -366z" />
<glyph unicode="r" horiz-adv-x="759" d="M177 40v1008q3 47 73 47h66q70 0 73 -47v-116q70 160 295 165q54 0 54 -35q0 -9 -4 -21l-44 -107q-22 -44 -85 -50q-215 -11 -216 -254v-590q-3 -47 -73 -47h-63q-70 0 -76 47z" />
<glyph unicode="s" horiz-adv-x="842" d="M91 156q0 35 51 60q73 32 103 32q26 0 42 -16q41 -61 135 -61q119 12 119 139q-2 112 -216 219.5t-218 278.5q7 263 283 287q201 0 296 -120q13 -18 13 -36q0 -33 -41 -66q-57 -32 -83 -32q-21 0 -34 15q-41 61 -121 61q-92 -6 -95 -95q1 -84 211.5 -188t214.5 -309 q-7 -317 -329 -333q-191 0 -300 110q-31 28 -31 54z" />
<glyph unicode="t" horiz-adv-x="732" d="M49 1000v40q0 46 29 48h132v197q3 47 73 47h63q70 0 73 -47v-197h179q29 -2 29 -48v-40q0 -45 -29 -47h-179v-622q0 -136 121 -136q54 0 79 10q2 1 3 1q53 0 53 -74v-5q-3 -112 -41 -121q-42 -10 -95 -10q-320 0 -329 324v633h-132q-29 2 -29 47z" />
<glyph unicode="u" horiz-adv-x="1222" d="M155 505v543q3 47 73 47h63q70 0 73 -47v-539q0 -337 190 -337q207 5 281 262v614q3 47 73 47h63q70 0 73 -47v-1008q-3 -47 -73 -47h-63q-70 0 -73 47v93q-92 -137 -280 -137q-400 0 -400 509z" />
<glyph unicode="v" horiz-adv-x="1166" d="M165 290v758q3 47 73 47h63q70 0 73 -47l1 -754q0 -123 161 -123q166 27 263 231q44 131 44 289q0 164 -47 357q3 47 73 47h63q70 0 73 -47q43 -200 43 -371q-24 -640 -506 -681q-377 0 -377 294z" />
<glyph unicode="w" horiz-adv-x="1796" d="M145 499v549q3 47 73 47h63q70 0 73 -47v-542q0 -334 190 -334q177 5 271 230v646q3 47 73 47h63q70 0 73 -47v-542q0 -334 190 -334q157 5 244 230q40 108 40 256q0 170 -53 390q3 47 73 47h63q70 0 73 -47q43 -200 43 -371q0 -224 -73 -392q-131 -289 -409 -289 q-224 0 -323 160q-128 -160 -347 -160q-400 0 -400 503z" />
<glyph unicode="x" horiz-adv-x="1116" d="M68 16q0 16 20 45l340 483l-340 483q-20 29 -20 45q0 23 37 23h159q32 0 79 -68l213 -302l212 302q47 68 79 68h159q37 0 37 -23q0 -16 -20 -45l-340 -483l340 -483q20 -29 20 -45q0 -23 -37 -23h-127q-64 0 -111 68l-212 302l-213 -302q-47 -68 -111 -68h-127 q-37 0 -37 23z" />
<glyph unicode="y" horiz-adv-x="1232" d="M165 502v546q3 47 73 47h63q70 0 73 -47v-542q0 -334 190 -334q207 5 281 262v614q3 47 73 47h63q70 0 73 -47v-957q-7 -517 -547 -528q-42 1 -42 42v103q2 45 36 46q324 6 344 320v59q-92 -137 -280 -137q-400 0 -400 506z" />
<glyph unicode="z" horiz-adv-x="989" d="M103 0v95l506 858h-477q-29 2 -29 47v40q0 46 29 48h754v-87l-510 -866h481q29 -2 29 -48v-40q0 -45 -29 -47h-754z" />
<glyph unicode="{" horiz-adv-x="730" d="M80 707q0 44 23 45q185 36 186 405.5t379 426.5q32 0 32 -33v-81q0 -36 -38 -43q-150 -19 -153.5 -330.5t-178.5 -389.5q175 -78 178.5 -389.5t153.5 -330.5q38 -7 38 -43v-81q0 -33 -32 -33q-378 57 -379 426.5t-186 405.5q-23 1 -23 45z" />
<glyph unicode="|" horiz-adv-x="519" d="M155 -260v1745q3 47 53 47h103q50 0 53 -47v-1745q-3 -47 -53 -47h-103q-50 0 -53 47z" />
<glyph unicode="}" horiz-adv-x="730" d="M30 -56q0 36 38 43q150 19 153.5 330.5t178.5 389.5q-175 78 -178.5 389.5t-153.5 330.5q-38 7 -38 43v81q0 33 32 33q378 -57 379 -426.5t186 -405.5q23 -1 23 -45t-23 -45q-185 -36 -186 -405.5t-379 -426.5q-32 0 -32 33v81z" />
<glyph unicode="~" horiz-adv-x="1100" d="M127 460q0 4 1 8q58 223 233 223q110 0 214.5 -55.5t165.5 -55.5q64 0 82 94q9 17 23 17q5 0 9 -1q118 -16 118 -41q0 -4 -1 -8q-58 -223 -233 -223q-110 0 -214.5 55.5t-165.5 55.5q-64 0 -82 -94q-9 -17 -23 -17q-5 0 -9 1q-118 16 -118 41z" />
<glyph unicode="&#xa1;" horiz-adv-x="701" d="M225 -305l57 962q10 34 41 34h54q31 0 41 -34l57 -962q0 -40 -47 -43h-156q-47 3 -47 43zM245 940v98q3 57 73 57h63q70 0 73 -57v-98q-3 -47 -73 -47h-63q-70 0 -73 47z" />
<glyph unicode="&#xa2;" horiz-adv-x="1090" d="M200 681q1 336 262 395v323q0 30 37 33h92q37 -3 37 -33v-315q180 -22 256 -157q6 -10 6 -20q0 -19 -23 -34l-86 -39q-16 -6 -29 -6q-29 0 -41 21q-43 67 -142 67q-160 0 -166 -235q6 -232 166 -232q99 0 142 67q12 22 41 22q13 0 29 -6l86 -40q23 -14 23 -33 q0 -10 -6 -20q-76 -136 -256 -157v-311q0 -30 -37 -33h-92q-37 3 -37 33v319q-261 57 -262 391z" />
<glyph unicode="&#xa3;" horiz-adv-x="963" d="M122 1038q0 128 81 234q125 162 343 162q52 0 108 -9q96 -26 163 -80q16 -16 16 -35q0 -31 -45 -68q-47 -38 -75 -38q-16 0 -26 11q-35 33 -92 44q-21 2 -41 2q-137 0 -202 -109q-27 -45 -27 -111q0 -115 79 -307q41 -101 60 -186h188q28 0 29 -27v-53q-1 -27 -29 -27 h-171q1 -17 1 -34q0 -106 -46 -198q-12 -24 -25 -45h492q32 0 35 -56v-52q-3 -56 -35 -56h-755v169q67 2 124 140q16 40 16 92q0 19 -2 40h-116q-28 0 -30 27v53q2 27 30 27h97q-21 81 -62 178q-83 195 -83 312z" />
<glyph unicode="&#xa4;" horiz-adv-x="1210" d="M99 530q0 25 26 51l124 124q-69 103 -69 236q0 119 56 214l-111 111q-26 26 -26 51q0 24 22 48l44 44q23 21 47 21q26 0 52 -26l105 -105q107 75 244 75q133 0 236 -69l99 99q26 26 51 26q24 0 48 -22l44 -44q21 -23 21 -47q0 -26 -26 -52l-101 -101q61 -99 61 -223 q0 -138 -74 -244l114 -115q26 -26 26 -52q0 -24 -21 -47l-44 -44q-24 -22 -48 -22q-25 0 -51 26l-120 120q-96 -55 -215 -55q-124 0 -223 61l-126 -126q-26 -26 -52 -26q-24 0 -47 21l-44 44q-22 24 -22 48zM335 941q0 -114 80.5 -194.5t194.5 -80.5q113 0 193.5 80.5 t80.5 194.5q0 113 -80.5 193.5t-193.5 80.5q-114 0 -194.5 -80.5t-80.5 -193.5z" />
<glyph unicode="&#xa5;" horiz-adv-x="1152" d="M80 1393q0 38 48 40h92q68 -3 93 -73l276 -695l276 695q24 70 93 73h92q47 -2 47 -40q0 -14 -6 -33l-364 -863h127q39 0 40 -37v-33q-1 -37 -40 -37h-161v-123h161q39 0 40 -37v-33q-1 -37 -40 -37h-161v-120q-3 -47 -73 -47h-63q-70 0 -73 47v120h-161q-39 0 -40 37v33 q1 37 40 37h161v123h-161q-39 0 -40 37v33q1 37 40 37h129l-365 863q-7 18 -7 33z" />
<glyph unicode="&#xa6;" horiz-adv-x="559" d="M175 -260v745q3 47 73 47h63q70 0 73 -47v-745q-3 -47 -73 -47h-63q-70 0 -73 47zM175 740v745q3 47 73 47h63q70 0 73 -47v-745q-3 -47 -73 -47h-63q-70 0 -73 47z" />
<glyph unicode="&#xa7;" horiz-adv-x="1380" d="M220 625q0 212 125 310q-19 47 -19 104q0 58 19 136q68 220 355 226q208 0 358 -150q11 -18 12 -35v-4q0 -39 -52 -77q-38 -28 -68 -29h-5q-28 0 -49 21q-113 95 -207 95q-69 -3 -119 -41q-45 -48 -45 -117q13 -84 43 -119q20 -29 307.5 -166t304.5 -400 q0 -212 -125 -310q30 -45 30 -110q0 -53 -20 -120q-78 -230 -365 -236q-208 0 -358 150q-11 18 -12 35v4q0 39 52 77q38 28 68 29h5q28 0 49 -21q113 -95 207 -95q69 3 119 41q45 48 45 106q-3 95 -43 130q-20 29 -307.5 164t-304.5 402zM411 639q10 -163 341 -296 q114 -55 189 -117q48 43 48 139q-10 163 -341 296q-114 55 -189 117q-48 -43 -48 -139z" />
<glyph unicode="&#xa8;" horiz-adv-x="623" d="M57 1281v91q0 46 63 46h63q63 0 63 -46v-91q0 -45 -63 -45h-63q-63 0 -63 45zM377 1281v91q0 46 63 46h63q63 0 63 -46v-91q0 -45 -63 -45h-63q-63 0 -63 45z" />
<glyph unicode="&#xa9;" horiz-adv-x="1669" d="M125 713q0 292 208 498.5t502 206.5q293 0 501 -206.5t208 -498.5t-208 -499t-501 -207q-294 0 -502 207t-208 499zM295 713q0 -222 158 -379t382 -157q223 0 381 157t158 379t-158 379t-381 157q-224 0 -382 -157t-158 -379zM567 711q1 299 284 305q176 -4 245 -125 q6 -11 6 -22q0 -22 -27 -39l-63 -30q-18 -6 -33 -6q-37 0 -52 27q-22 35 -76 35q-86 0 -90 -145q4 -142 90 -142q54 0 76 35q15 27 52 27q15 0 33 -6l63 -30q27 -17 27 -39q0 -11 -6 -22q-69 -121 -245 -125q-283 6 -284 302z" />
<glyph unicode="&#xaa;" horiz-adv-x="784" d="M55 1050q29 351 384 375q166 0 245 -53v-600q-3 -48 -73 -48h-41q-70 0 -72 54l-2 54q-59 -106 -209 -106q-232 0 -232 324zM150 562v42q3 26 35 26h425q32 0 35 -26v-42q-3 -26 -35 -26h-425q-32 0 -35 26zM231 1053q0 -181 103 -181q125 6 162 150v244q-12 5 -74 5 q-169 -17 -191 -218z" />
<glyph unicode="&#xab;" horiz-adv-x="883" d="M50 578l334 381q7 1 13 1q26 0 26 -21q0 -16 -15 -44v-4l-152 -313l152 -314v-4q15 -28 15 -44q0 -21 -26 -21q-6 0 -13 1zM410 578l334 381q7 1 13 1q26 0 26 -21q0 -16 -15 -44v-4l-152 -313l152 -314v-4q15 -28 15 -44q0 -21 -26 -21q-6 0 -13 1z" />
<glyph unicode="&#xac;" horiz-adv-x="1100" d="M95 549v62q3 67 53 67h856v-499q0 -50 -67 -53h-62q-67 3 -67 53v303h-660q-50 0 -53 67z" />
<glyph unicode="&#xad;" horiz-adv-x="1005" d="M128 524v102q3 37 43 37h663q40 0 43 -37v-102q-3 -37 -43 -37h-663q-40 0 -43 37z" />
<glyph unicode="&#xae;" horiz-adv-x="820" d="M200 811v477q61 31 157 31q255 0 263 -189q-5 -130 -99 -159l89 -147q6 -9 6 -20q0 -18 -56 -18h-32q-47 0 -70 13l-86 144h-23v-132q-3 -25 -64 -25h-21q-61 0 -64 25zM349 1067l50 -1q72 2 72 64q0 64 -73 67h-49v-130z" />
<glyph unicode="&#xaf;" horiz-adv-x="795" d="M150 1262v42q3 26 35 26h425q32 0 35 -26v-42q-3 -26 -35 -26h-425q-32 0 -35 26z" />
<glyph unicode="&#xb0;" horiz-adv-x="598" d="M50 1185q0 103 73 176t176 73t176 -73t73 -176t-73 -176t-176 -73t-176 73t-73 176zM189 1185q0 -45 32 -77.5t78 -32.5q45 0 77.5 32.5t32.5 77.5q0 46 -32.5 78t-77.5 32q-46 0 -78 -32t-32 -78z" />
<glyph unicode="&#xb1;" horiz-adv-x="1100" d="M95 542v82q1 47 33 47h324v334q0 30 47 33h102q47 -3 47 -33v-334h323q32 0 33 -47v-82q-1 -47 -33 -47h-323v-333q0 -30 -47 -33h-102q-47 3 -47 33v333h-324q-32 0 -33 47zM96 -97q1 47 33 47h843q32 0 33 -47v-82q-1 -47 -33 -47h-843q-32 0 -33 47v82z" />
<glyph unicode="&#xb2;" horiz-adv-x="899" d="M140 643q9 215 220 308q177 77 177 206q-7 99 -94 99q-104 -5 -108 -145q0 -50 -70 -50h-49q-58 0 -58 47v2q16 279 289 289q263 -14 277 -231q0 -199 -165 -288q-186 -70 -201 -104h354q44 0 48 -41v-51q-4 -38 -48 -41h-572z" />
<glyph unicode="&#xb3;" horiz-adv-x="899" d="M139 714q0 19 19 32l42 29q19 12 37 12q20 0 32 -14q59 -72 179 -72h9q105 15 116 108q0 126 -126 140h-56q-53 1 -56 44v51q3 50 56 52l68 -1q96 10 96 115v1q-18 63 -96 63q-5 0 -13 -1q-82 0 -130 -56q-12 -14 -33 -14q-17 0 -36 10l-42 26q-20 12 -20 32q0 16 16 36 q89 112 263 112q232 -3 279 -209q1 -10 1 -19q0 -130 -76 -171q92 -49 92 -202q-18 -238 -297 -261q-229 0 -309 119q-15 21 -15 38z" />
<glyph unicode="&#xb4;" horiz-adv-x="1139" d="M385 1210q0 5 2 10l127 204q18 43 129 44q102 0 102 -45q0 -4 -1 -8q-128 -168 -304 -220q-10 -3 -22 -3q-6 0 -13 1q-20 2 -20 17z" />
<glyph unicode="&#xb5;" horiz-adv-x="1272" d="M197 -396v1448q3 47 73 47h63q70 0 73 -47v-549q1 -338 184 -338h6q207 5 281 269v618q3 47 73 47h63q70 0 73 -47v-1012q-3 -47 -73 -47h-63q-70 0 -73 47v93q-92 -144 -280 -144q-111 0 -191 39v-424q-3 -47 -73 -47h-63q-70 0 -73 47z" />
<glyph unicode="&#xb6;" horiz-adv-x="1335" d="M200 1048q6 377 491 377h444v-1825q-3 -37 -45 -37h-71q-50 0 -53 37v1690h-239v-1690q-3 -37 -53 -37h-73q-50 0 -53 37v1090q-348 69 -348 358z" />
<glyph unicode="&#xb7;" horiz-adv-x="500" d="M175 578v85q0 44 42 44h86q44 0 44 -44v-85q0 -43 -44 -43h-86q-42 0 -42 43z" />
<glyph unicode="&#xb8;" horiz-adv-x="395" d="M67 -282l3 15l3 16q5 23 40 23q101 0 101 46v1q-1 46 -128 47l39 140h93l-27 -73q137 0 137 -111q-14 -126 -222 -130q-39 2 -39 23v3z" />
<glyph unicode="&#xb9;" horiz-adv-x="899" d="M245 1046q0 9 5 19l187 305h216v-695q-3 -48 -60 -48h-67q-57 0 -61 48v399l-44 -78q-16 -27 -51 -27q-18 0 -41 10l-38 16q-46 21 -46 51z" />
<glyph unicode="&#xba;" horiz-adv-x="834" d="M50 1069q3 345 341 358q339 -13 342 -358q0 -338 -342 -344q-341 6 -341 344zM150 562v42q3 26 35 26h425q32 0 35 -26v-42q-3 -26 -35 -26h-425q-32 0 -35 26zM229 1067q0 -202 162 -202t162 202v6q-2 208 -162 208q-159 0 -162 -208v-6z" />
<glyph unicode="&#xbb;" horiz-adv-x="883" d="M100 216q0 16 15 44v4l152 314l-152 313v4q-15 28 -15 44q0 21 26 21q6 0 13 -1l334 -381l-334 -382q-7 -1 -13 -1q-26 0 -26 21zM460 216q0 16 15 44v4l152 314l-152 313v4q-15 28 -15 44q0 21 26 21q6 0 13 -1l334 -381l-334 -382q-7 -1 -13 -1q-26 0 -26 21z" />
<glyph unicode="&#xbc;" horiz-adv-x="2006" d="M245 1046q0 9 5 19l187 305h216v-695q-3 -48 -60 -48h-67q-57 0 -61 48v399l-44 -78q-16 -27 -51 -27q-18 0 -41 10l-38 16q-46 21 -46 51zM499 -8q0 13 13 34l913 1372q33 49 86 50h74q47 -2 47 -34q0 -14 -14 -34l-913 -1372q-32 -48 -85 -51h-75q-46 2 -46 35z M1224 166v83l344 588h216v-523h52q53 -3 53 -48v-53q0 -47 -53 -47h-52v-124q-3 -41 -60 -41h-67q-57 0 -61 41v124h-372zM1436 314h160v265z" />
<glyph unicode="&#xbd;" horiz-adv-x="2006" d="M245 1046q0 9 5 19l187 305h216v-695q-3 -48 -60 -48h-67q-57 0 -61 48v399l-44 -78q-16 -27 -51 -27q-18 0 -41 10l-38 16q-46 21 -46 51zM499 -8q0 13 13 34l913 1372q33 49 86 50h74q47 -2 47 -34q0 -14 -14 -34l-913 -1372q-32 -48 -85 -51h-75q-46 2 -46 35zM1247 1 q9 215 220 308q177 77 177 206q-7 99 -94 99q-104 -5 -108 -145q0 -50 -70 -50h-49q-58 0 -58 47v2q16 279 289 289q263 -14 277 -231q0 -199 -165 -288q-186 -70 -201 -104h354q44 0 48 -41v-51q-4 -38 -48 -41h-572z" />
<glyph unicode="&#xbe;" horiz-adv-x="2006" d="M139 714q0 19 19 32l42 29q19 12 37 12q20 0 32 -14q59 -72 179 -72h9q105 15 116 108q0 126 -126 140h-56q-53 1 -56 44v51q3 50 56 52l68 -1q96 10 96 115v1q-18 63 -96 63q-5 0 -13 -1q-82 0 -130 -56q-12 -14 -33 -14q-17 0 -36 10l-42 26q-20 12 -20 32q0 16 16 36 q89 112 263 112q232 -3 279 -209q1 -10 1 -19q0 -130 -76 -171q92 -49 92 -202q-18 -238 -297 -261q-229 0 -309 119q-15 21 -15 38zM499 -8q0 13 13 34l913 1372q33 49 86 50h74q47 -2 47 -34q0 -14 -14 -34l-913 -1372q-32 -48 -85 -51h-75q-46 2 -46 35zM1224 166v83 l344 588h216v-523h52q53 -3 53 -48v-53q0 -47 -53 -47h-52v-124q-3 -41 -60 -41h-67q-57 0 -61 41v124h-372zM1436 314h160v265z" />
<glyph unicode="&#xbf;" horiz-adv-x="883" d="M18 -2q0 227 180 380q132 143 132 274q0 38 40 43h115q45 0 48 -36q0 -171 -179 -350q-133 -133 -133 -295q15 -176 208 -176q169 0 243 189q7 23 29 23q9 0 20 -3l81 -25q32 -9 32 -32q0 -6 -2 -13q-88 -293 -395 -320q-374 0 -419 341zM332 940v98q3 57 73 57h63 q70 0 73 -57v-98q-3 -47 -73 -47h-63q-70 0 -73 47z" />
<glyph unicode="&#xc0;" horiz-adv-x="1232" d="M50 26q0 4 2 14l459 1345q8 19 28.5 33t49.5 14h85q32 0 49 -11q19 -13 28 -36l459 -1345q2 -10 2 -14q0 -33 -58 -33h-53q-70 0 -90 47l-111 325h-508l-111 -325q-20 -47 -89 -47h-83q-59 0 -59 33zM391 1760q0 45 102 45q111 -1 129 -44l127 -204q2 -5 2 -10 q0 -15 -20 -17q-7 -1 -13 -1q-12 0 -22 3q-176 52 -304 220q-1 4 -1 8zM441 509h410l-205 601z" />
<glyph unicode="&#xc1;" horiz-adv-x="1232" d="M50 26q0 4 2 14l459 1345q8 19 28.5 33t49.5 14h85q32 0 49 -11q19 -13 28 -36l459 -1345q2 -10 2 -14q0 -33 -58 -33h-53q-70 0 -90 47l-111 325h-508l-111 -325q-20 -47 -89 -47h-83q-59 0 -59 33zM441 509h410l-205 601zM511 1547q0 5 2 10l127 204q18 43 129 44 q102 0 102 -45q0 -4 -1 -8q-128 -168 -304 -220q-10 -3 -22 -3q-6 0 -13 1q-20 2 -20 17z" />
<glyph unicode="&#xc2;" horiz-adv-x="1232" d="M50 26q0 4 2 14l459 1345q8 19 28.5 33t49.5 14h85q32 0 49 -11q19 -13 28 -36l459 -1345q2 -10 2 -14q0 -33 -58 -33h-53q-70 0 -90 47l-111 325h-508l-111 -325q-20 -47 -89 -47h-83q-59 0 -59 33zM346 1548q0 6 1 13l284 254l285 -254q1 -7 1 -13q0 -26 -17 -26 q-13 0 -36 15h-3l-229 112l-230 -112h-3q-23 -15 -36 -15q-17 0 -17 26zM441 509h410l-205 601z" />
<glyph unicode="&#xc3;" horiz-adv-x="1232" d="M50 26q0 4 2 14l459 1345q8 19 28.5 33t49.5 14h85q32 0 49 -11q19 -13 28 -36l459 -1345q2 -10 2 -14q0 -33 -58 -33h-53q-70 0 -90 47l-111 325h-508l-111 -325q-20 -47 -89 -47h-83q-59 0 -59 33zM388 1574q9 191 124 191q61 0 133 -48t92 -48q46 0 47 80q0 16 23 16 h27q40 0 40 -22q-9 -191 -124 -191q-70 0 -139 51.5t-88 51.5q-43 0 -45 -87q0 -16 -23 -16h-27q-40 0 -40 22zM441 509h410l-205 601z" />
<glyph unicode="&#xc4;" horiz-adv-x="1232" d="M50 26q0 4 2 14l459 1345q8 19 28.5 33t49.5 14h85q32 0 49 -11q19 -13 28 -36l459 -1345q2 -10 2 -14q0 -33 -58 -33h-53q-70 0 -90 47l-111 325h-508l-111 -325q-20 -47 -89 -47h-83q-59 0 -59 33zM377 1618v91q0 46 63 46h63q63 0 63 -46v-91q0 -45 -63 -45h-63 q-63 0 -63 45zM441 509h410l-205 601zM697 1618v91q0 46 63 46h63q63 0 63 -46v-91q0 -45 -63 -45h-63q-63 0 -63 45z" />
<glyph unicode="&#xc5;" horiz-adv-x="1161" d="M-4 26q0 4 2 14l459 1345q8 19 29 33q7 5 16 9l-4 2q-38 14 -66 38.5t-43.5 57t-15.5 69.5q0 36 15.5 68.5t44 57t65.5 39t80 14.5q42 0 79 -14.5t64.5 -39t43.5 -57t16 -68.5q0 -37 -15.5 -69.5t-43.5 -57t-65 -38.5q-1 -1 -2 -1q8 -3 14 -7q19 -13 28 -36l459 -1345 q2 -10 2 -14q0 -33 -58 -33h-53q-70 0 -90 47l-111 325h-508l-111 -325q-20 -47 -89 -47h-83q-59 0 -59 33zM387 509h410l-205 601zM496 1594q0 -17 7 -30t19 -23t26 -14.5t30 -4.5q14 0 29 4.5t26 14.5t18 23t7 30q0 16 -7 29t-18.5 23.5t-26 15t-28.5 4.5q-16 0 -30 -4.5 t-26 -15t-19 -23.5t-7 -29z" />
<glyph unicode="&#xc6;" horiz-adv-x="1558" d="M17 26q0 4 2 14l479 1345q8 19 33.5 29.5t54.5 10.5h876q47 -3 47 -53v-43q0 -70 -47 -73h-626v-447h373q72 0 75 -56v-42q-3 -56 -75 -56h-373v-486h626q47 -3 47 -73v-43q0 -50 -47 -53h-835v365h-288l-111 -325q-20 -47 -89 -47h-63q-59 0 -59 33zM388 509h239v657z " />
<glyph unicode="&#xc7;" horiz-adv-x="1220" d="M84 713q9 719 582 719q329 0 459 -242q1 -4 1 -9q0 -29 -62 -65q-47 -27 -77 -27q-16 0 -27 8q-89 149 -273 149q-376 0 -382 -533q6 -534 382 -534q184 0 273 149q11 8 27 8q30 0 77 -27q62 -36 62 -65q0 -5 -1 -9q-125 -233 -434 -242l-22 -60q137 0 137 -111 q-14 -126 -222 -130q-39 2 -39 23v3l3 15l3 16q5 23 40 23q101 0 101 46v1q-1 46 -128 47l36 130q-508 40 -516 717z" />
<glyph unicode="&#xc8;" horiz-adv-x="1162" d="M191 0v1425h845q37 -3 37 -53v-53q0 -60 -37 -63h-636v-447h403q42 0 45 -56v-42q-3 -56 -45 -56h-403v-486h636q37 -3 37 -63v-53q0 -50 -37 -53h-845zM392 1760q0 45 102 45q111 -1 129 -44l127 -204q2 -5 2 -10q0 -15 -20 -17q-7 -1 -13 -1q-12 0 -22 3 q-176 52 -304 220q-1 4 -1 8z" />
<glyph unicode="&#xc9;" horiz-adv-x="1162" d="M191 0v1425h845q37 -3 37 -53v-53q0 -60 -37 -63h-636v-447h403q42 0 45 -56v-42q-3 -56 -45 -56h-403v-486h636q37 -3 37 -63v-53q0 -50 -37 -53h-845zM512 1547q0 5 2 10l127 204q18 43 129 44q102 0 102 -45q0 -4 -1 -8q-128 -168 -304 -220q-10 -3 -22 -3q-6 0 -13 1 q-20 2 -20 17z" />
<glyph unicode="&#xca;" horiz-adv-x="1162" d="M191 0v1425h845q37 -3 37 -53v-53q0 -60 -37 -63h-636v-447h403q42 0 45 -56v-42q-3 -56 -45 -56h-403v-486h636q37 -3 37 -63v-53q0 -50 -37 -53h-845zM347 1548q0 6 1 13l284 254l285 -254q1 -7 1 -13q0 -26 -17 -26q-13 0 -36 15h-3l-229 112l-230 -112h-3 q-23 -15 -36 -15q-17 0 -17 26z" />
<glyph unicode="&#xcb;" horiz-adv-x="1162" d="M191 0v1425h845q37 -3 37 -53v-53q0 -60 -37 -63h-636v-447h403q42 0 45 -56v-42q-3 -56 -45 -56h-403v-486h636q37 -3 37 -63v-53q0 -50 -37 -53h-845zM378 1618v91q0 46 63 46h63q63 0 63 -46v-91q0 -45 -63 -45h-63q-63 0 -63 45zM698 1618v91q0 46 63 46h63 q63 0 63 -46v-91q0 -45 -63 -45h-63q-63 0 -63 45z" />
<glyph unicode="&#xcc;" horiz-adv-x="549" d="M36 1760q0 45 102 45q111 -1 129 -44l127 -204q2 -5 2 -10q0 -15 -20 -17q-7 -1 -13 -1q-12 0 -22 3q-176 52 -304 220q-1 4 -1 8zM170 40v1345q3 47 73 47h63q70 0 73 -47v-1345q-3 -47 -73 -47h-63q-70 0 -73 47z" />
<glyph unicode="&#xcd;" horiz-adv-x="549" d="M156 1547q0 5 2 10l127 204q18 43 129 44q102 0 102 -45q0 -4 -1 -8q-128 -168 -304 -220q-10 -3 -22 -3q-6 0 -13 1q-20 2 -20 17zM170 40v1345q3 47 73 47h63q70 0 73 -47v-1345q-3 -47 -73 -47h-63q-70 0 -73 47z" />
<glyph unicode="&#xce;" horiz-adv-x="549" d="M-10 1548q0 6 1 13l284 254l285 -254q1 -7 1 -13q0 -26 -17 -26q-13 0 -36 15h-3l-229 112l-230 -112h-3q-23 -15 -36 -15q-17 0 -17 26zM170 40v1345q3 47 73 47h63q70 0 73 -47v-1345q-3 -47 -73 -47h-63q-70 0 -73 47z" />
<glyph unicode="&#xcf;" horiz-adv-x="549" d="M21 1618v91q0 46 63 46h63q63 0 63 -46v-91q0 -45 -63 -45h-63q-63 0 -63 45zM170 40v1345q3 47 73 47h63q70 0 73 -47v-1345q-3 -47 -73 -47h-63q-70 0 -73 47zM341 1618v91q0 46 63 46h63q63 0 63 -46v-91q0 -45 -63 -45h-63q-63 0 -63 45z" />
<glyph unicode="&#xd0;" horiz-adv-x="1350" d="M91 690v53q2 27 30 27h70v635q31 27 344 27q705 0 712 -720q-7 -712 -702 -712h-354v663h-70q-28 0 -30 27zM400 183q5 -5 149 -5q481 0 489 535q-8 535 -489 535q-144 0 -149 -5v-473h303q28 0 29 -27v-53q-1 -27 -29 -27h-303v-480z" />
<glyph unicode="&#xd1;" horiz-adv-x="1364" d="M151 39v1346q2 47 62 47h78q50 0 83 -47l630 -1011v1012q0 46 69 46h63q69 0 77 -47v-1347q0 -45 -68 -45h-54q-58 0 -88 47l-643 1032v-1032q-8 -47 -77 -47h-63q-69 0 -69 46zM439 1574q9 191 124 191q61 0 133 -48t92 -48q46 0 47 80q0 16 23 16h27q40 0 40 -22 q-9 -191 -124 -191q-70 0 -139 51.5t-88 51.5q-43 0 -45 -87q0 -16 -23 -16h-27q-40 0 -40 22z" />
<glyph unicode="&#xd2;" horiz-adv-x="1408" d="M91 708q0 724 613 724t613 -724q0 -715 -613 -715t-613 715zM312 708q0 -529 392 -529t392 529q0 538 -392 538t-392 -538zM464 1760q0 45 102 45q111 -1 129 -44l127 -204q2 -5 2 -10q0 -15 -20 -17q-7 -1 -13 -1q-12 0 -22 3q-176 52 -304 220q-1 4 -1 8z" />
<glyph unicode="&#xd3;" horiz-adv-x="1408" d="M91 708q0 724 613 724t613 -724q0 -715 -613 -715t-613 715zM312 708q0 -529 392 -529t392 529q0 538 -392 538t-392 -538zM584 1547q0 5 2 10l127 204q18 43 129 44q102 0 102 -45q0 -4 -1 -8q-128 -168 -304 -220q-10 -3 -22 -3q-6 0 -13 1q-20 2 -20 17z" />
<glyph unicode="&#xd4;" horiz-adv-x="1408" d="M91 708q0 724 613 724t613 -724q0 -715 -613 -715t-613 715zM312 708q0 -529 392 -529t392 529q0 538 -392 538t-392 -538zM419 1548q0 6 1 13l284 254l285 -254q1 -7 1 -13q0 -26 -17 -26q-13 0 -36 15h-3l-229 112l-230 -112h-3q-23 -15 -36 -15q-17 0 -17 26z" />
<glyph unicode="&#xd5;" horiz-adv-x="1408" d="M91 708q0 724 613 724t613 -724q0 -715 -613 -715t-613 715zM312 708q0 -529 392 -529t392 529q0 538 -392 538t-392 -538zM461 1574q9 191 124 191q61 0 133 -48t92 -48q46 0 47 80q0 16 23 16h27q40 0 40 -22q-9 -191 -124 -191q-70 0 -139 51.5t-88 51.5 q-43 0 -45 -87q0 -16 -23 -16h-27q-40 0 -40 22z" />
<glyph unicode="&#xd6;" horiz-adv-x="1408" d="M91 708q0 724 613 724t613 -724q0 -715 -613 -715t-613 715zM312 708q0 -529 392 -529t392 529q0 538 -392 538t-392 -538zM450 1618v91q0 46 63 46h63q63 0 63 -46v-91q0 -45 -63 -45h-63q-63 0 -63 45zM770 1618v91q0 46 63 46h63q63 0 63 -46v-91q0 -45 -63 -45h-63 q-63 0 -63 45z" />
<glyph unicode="&#xd7;" horiz-adv-x="1100" d="M174 833q0 16 18 36l73 72q21 18 37 18q11 0 19 -8l236 -236l229 228q9 10 20 10q16 0 36 -19l58 -58q19 -20 19 -36q0 -12 -9 -21l-228 -228l235 -236q8 -8 8 -19q0 -16 -18 -37l-72 -73q-20 -18 -36 -18q-11 0 -20 9l-236 235l-229 -229q-9 -9 -21 -9q-16 0 -36 19 l-58 58q-19 20 -19 36q0 11 10 20l229 229l-236 237q-9 9 -9 20z" />
<glyph unicode="&#xd8;" horiz-adv-x="1448" d="M111 708q0 724 613 724q105 0 193 -21l44 121q8 20 26 20q4 0 10 -1l50 -19q17 -8 17 -24q0 -6 -2 -13l-44 -119q319 -146 319 -668q0 -715 -613 -715q-110 0 -201 23l-37 -102q-7 -20 -24 -20q-5 0 -11 2l-50 19q-18 7 -18 22q0 7 3 14l37 101q-312 146 -312 656z M332 713q0 -341 163 -462l357 983q-57 17 -128 17q-392 0 -392 -538zM591 202q60 -18 133 -18q392 0 392 529q0 351 -167 473z" />
<glyph unicode="&#xd9;" horiz-adv-x="1288" d="M129 537v848q3 47 73 47h63q70 0 73 -47v-878q7 -180 100 -252t213 -72t213 72t100 252v878q3 47 73 47h63q70 0 73 -47v-848q-13 -543 -519 -547q-512 4 -525 547zM411 1760q0 45 102 45q111 -1 129 -44l127 -204q2 -5 2 -10q0 -15 -20 -17q-7 -1 -13 -1q-12 0 -22 3 q-176 52 -304 220q-1 4 -1 8z" />
<glyph unicode="&#xda;" horiz-adv-x="1288" d="M129 537v848q3 47 73 47h63q70 0 73 -47v-878q7 -180 100 -252t213 -72t213 72t100 252v878q3 47 73 47h63q70 0 73 -47v-848q-13 -543 -519 -547q-512 4 -525 547zM531 1547q0 5 2 10l127 204q18 43 129 44q102 0 102 -45q0 -4 -1 -8q-128 -168 -304 -220q-10 -3 -22 -3 q-6 0 -13 1q-20 2 -20 17z" />
<glyph unicode="&#xdb;" horiz-adv-x="1288" d="M129 537v848q3 47 73 47h63q70 0 73 -47v-878q7 -180 100 -252t213 -72t213 72t100 252v878q3 47 73 47h63q70 0 73 -47v-848q-13 -543 -519 -547q-512 4 -525 547zM366 1548q0 6 1 13l284 254l285 -254q1 -7 1 -13q0 -26 -17 -26q-13 0 -36 15h-3l-229 112l-230 -112h-3 q-23 -15 -36 -15q-17 0 -17 26z" />
<glyph unicode="&#xdc;" horiz-adv-x="1288" d="M129 537v848q3 47 73 47h63q70 0 73 -47v-878q7 -180 100 -252t213 -72t213 72t100 252v878q3 47 73 47h63q70 0 73 -47v-848q-13 -543 -519 -547q-512 4 -525 547zM397 1618v91q0 46 63 46h63q63 0 63 -46v-91q0 -45 -63 -45h-63q-63 0 -63 45zM717 1618v91q0 46 63 46 h63q63 0 63 -46v-91q0 -45 -63 -45h-63q-63 0 -63 45z" />
<glyph unicode="&#xdd;" horiz-adv-x="1090" d="M-10 1402q0 3 1 6q4 24 55 24h93q70 0 94 -47l317 -742l317 742q24 47 94 47h93q51 0 55 -24q1 -3 1 -6q0 -7 -4 -17l-450 -1045v-300q-3 -47 -73 -47h-63q-70 0 -73 47v296l-453 1049q-4 10 -4 17zM430 1547q0 5 2 10l127 204q18 43 129 44q102 0 102 -45q0 -4 -1 -8 q-128 -168 -304 -220q-10 -3 -22 -3q-6 0 -13 1q-20 2 -20 17z" />
<glyph unicode="&#xde;" horiz-adv-x="1232" d="M191 40v1345q3 47 73 47h63q70 0 73 -47v-216q32 2 65 4q34 1 70 1q635 0 661 -467q-25 -468 -661 -468q-35 0 -69 1.5t-66 3.5v-204q-3 -47 -73 -47h-63q-70 0 -73 47zM400 407q40 -3 83 -4t85 -1q413 0 420 304q-8 305 -421 305q-41 0 -84.5 -1t-82.5 -4v-599z" />
<glyph unicode="&#xdf;" horiz-adv-x="1108" d="M130 40v1095q10 194 188 269q89 37 175 37q84 0 165 -36q163 -74 208 -231q14 -57 14 -112q0 -122 -71 -230q-6 -15 -6 -29q0 -33 38 -59q192 -157 192 -341q0 -46 -12 -94q-60 -239 -248 -292q-85 -24 -164 -24q-98 0 -148 26q-39 19 -39 59q0 30 21 71q33 64 61 64 q14 0 35.5 -18t81.5 -18q57 0 106 27q98 54 108 194v11q0 133 -212 253q-61 34 -61 79q0 40 49 89q69 94 69 191q0 47 -16 95q-51 146 -173 146q-146 -20 -152 -172v-1050q-3 -47 -73 -47h-63q-70 0 -73 47z" />
<glyph unicode="&#xe0;" horiz-adv-x="1201" d="M131 539q47 537 509 557q325 0 418 -173v-883q-3 -47 -73 -47h-63q-70 0 -73 47v110q-85 -137 -280 -157q-438 0 -438 546zM328 541q0 -343 228 -343q226 1 293 280v360q-60 69 -216 69q-276 -10 -305 -366zM455 1423q0 45 102 45q111 -1 129 -44l127 -204q2 -5 2 -10 q0 -15 -20 -17q-7 -1 -13 -1q-12 0 -22 3q-176 52 -304 220q-1 4 -1 8z" />
<glyph unicode="&#xe1;" horiz-adv-x="1201" d="M131 539q47 537 509 557q325 0 418 -173v-883q-3 -47 -73 -47h-63q-70 0 -73 47v110q-85 -137 -280 -157q-438 0 -438 546zM328 541q0 -343 228 -343q226 1 293 280v360q-60 69 -216 69q-276 -10 -305 -366zM575 1210q0 5 2 10l127 204q18 43 129 44q102 0 102 -45 q0 -4 -1 -8q-128 -168 -304 -220q-10 -3 -22 -3q-6 0 -13 1q-20 2 -20 17z" />
<glyph unicode="&#xe2;" horiz-adv-x="1201" d="M131 539q47 537 509 557q325 0 418 -173v-883q-3 -47 -73 -47h-63q-70 0 -73 47v110q-85 -137 -280 -157q-438 0 -438 546zM328 541q0 -343 228 -343q226 1 293 280v360q-60 69 -216 69q-276 -10 -305 -366zM409 1211q0 6 1 13l284 254l285 -254q1 -7 1 -13 q0 -26 -17 -26q-13 0 -36 15h-3l-229 112l-230 -112h-3q-23 -15 -36 -15q-17 0 -17 26z" />
<glyph unicode="&#xe3;" horiz-adv-x="1201" d="M131 539q47 537 509 557q325 0 418 -173v-883q-3 -47 -73 -47h-63q-70 0 -73 47v110q-85 -137 -280 -157q-438 0 -438 546zM328 541q0 -343 228 -343q226 1 293 280v360q-60 69 -216 69q-276 -10 -305 -366zM452 1237q9 191 124 191q61 0 133 -48t92 -48q46 0 47 80 q0 16 23 16h27q40 0 40 -22q-9 -191 -124 -191q-70 0 -139 51.5t-88 51.5q-43 0 -45 -87q0 -16 -23 -16h-27q-40 0 -40 22z" />
<glyph unicode="&#xe4;" horiz-adv-x="1201" d="M131 539q47 537 509 557q325 0 418 -173v-883q-3 -47 -73 -47h-63q-70 0 -73 47v110q-85 -137 -280 -157q-438 0 -438 546zM328 541q0 -343 228 -343q226 1 293 280v360q-60 69 -216 69q-276 -10 -305 -366zM440 1281v91q0 46 63 46h63q63 0 63 -46v-91q0 -45 -63 -45 h-63q-63 0 -63 45zM760 1281v91q0 46 63 46h63q63 0 63 -46v-91q0 -45 -63 -45h-63q-63 0 -63 45z" />
<glyph unicode="&#xe5;" horiz-adv-x="1201" d="M131 539q45 519 478 555q-33 14 -59 37q-28 24 -43.5 56.5t-15.5 69.5q0 36 15.5 68.5t44 57t65.5 39t80 14.5q42 0 79 -14.5t64.5 -39t43.5 -57t16 -68.5q0 -37 -15.5 -69.5t-43.5 -57t-65 -38.5q-4 -2 -9 -4q219 -28 292 -165v-883q-3 -47 -73 -47h-63q-70 0 -73 47 v110q-85 -137 -280 -157q-438 0 -438 546zM328 541q0 -343 228 -343q226 1 293 280v360q-60 69 -216 69q-276 -10 -305 -366zM614 1257q0 -17 7 -30t19 -23t26 -14.5t30 -4.5q14 0 29 4.5t26 14.5t18 23t7 30q0 16 -7 29t-18.5 23.5t-26 15t-28.5 4.5q-16 0 -30 -4.5 t-26 -15t-19 -23.5t-7 -29z" />
<glyph unicode="&#xe6;" horiz-adv-x="1708" d="M133 356q0 258 332 336q192 44 272 88q-30 -91 -39 -208q-54 -15 -135 -32q-240 -49 -240 -201q12 -178 207 -183q133 0 221 98q76 -175 262 -230q-13 -31 -70 -31h-63q-70 0 -73 47v87q-92 -132 -299 -132q-349 35 -375 361zM217 812q1 279 400 283h6q177 0 274 -86 q-67 -48 -112 -124q-35 49 -180 49q-191 0 -199 -142v-2q0 -21 -58 -21q-15 0 -35 2q-96 7 -96 41zM697 555q1 8 1 17q106 30 109 55v-293q-25 -46 -56 -80q-53 121 -54 301zM698 572q9 117 39 208q59 31 59 62q0 24 -11 43q45 76 112 124q68 -59 97 -161q-72 -69 -95 -198 q59 -15 117 -22v-168q-56 2 -114 9q25 -167 114 -238v-191q-1 -9 -3 -16q-186 55 -262 230q31 34 56 80v293q-3 -25 -109 -55zM737 780q20 58 48 105q11 -19 11 -43q0 -31 -59 -62zM897 1009q117 84 300 88q330 -6 365 -284q-10 -333 -479 -355q-33 0 -67 2v168q39 -4 78 -4 q67 0 133 18q157 43 157 157v6q-23 123 -197 123q-121 -10 -193 -80q-29 102 -97 161zM1013 24q2 7 3 16v191q67 -54 171 -54q164 0 237 123q7 13 24 13q11 0 25 -5l119 -55q16 -10 16 -24q0 -9 -5 -18q-116 -206 -416 -212q-97 2 -174 25z" />
<glyph unicode="&#xe7;" horiz-adv-x="1143" d="M132 547q2 543 490 553q300 -6 416 -212q5 -9 5 -18q0 -14 -16 -24l-119 -55q-14 -5 -25 -5q-17 0 -24 13q-73 113 -237 113q-266 0 -274 -365q8 -359 274 -359q164 0 237 113q7 13 24 13q11 0 25 -5l119 -55q16 -10 16 -24q0 -9 -5 -18q-111 -198 -392 -211l-25 -68 q137 0 137 -111q-14 -126 -222 -130q-39 2 -39 23v3l3 15l3 16q5 23 40 23q101 0 101 46v1q-1 46 -128 47l38 138q-420 45 -422 543z" />
<glyph unicode="&#xe8;" horiz-adv-x="1143" d="M132 555q32 532 500 542q330 -6 365 -284q-10 -333 -479 -355q-89 0 -181 11q43 -292 285 -292q164 0 237 123q7 13 24 13q11 0 25 -5l119 -55q16 -10 16 -24q0 -9 -5 -18q-116 -206 -416 -212q-488 10 -490 556zM334 650q100 -26 195 -26q67 0 133 18q157 43 157 157v6 q-23 123 -197 123q-241 -20 -288 -278zM349 1423q0 45 102 45q111 -1 129 -44l127 -204q2 -5 2 -10q0 -15 -20 -17q-7 -1 -13 -1q-12 0 -22 3q-176 52 -304 220q-1 4 -1 8z" />
<glyph unicode="&#xe9;" horiz-adv-x="1143" d="M132 555q32 532 500 542q330 -6 365 -284q-10 -333 -479 -355q-89 0 -181 11q43 -292 285 -292q164 0 237 123q7 13 24 13q11 0 25 -5l119 -55q16 -10 16 -24q0 -9 -5 -18q-116 -206 -416 -212q-488 10 -490 556zM334 650q100 -26 195 -26q67 0 133 18q157 43 157 157v6 q-23 123 -197 123q-241 -20 -288 -278zM468 1210q0 5 2 10l127 204q18 43 129 44q102 0 102 -45q0 -4 -1 -8q-128 -168 -304 -220q-10 -3 -22 -3q-6 0 -13 1q-20 2 -20 17z" />
<glyph unicode="&#xea;" horiz-adv-x="1143" d="M132 555q32 532 500 542q330 -6 365 -284q-10 -333 -479 -355q-89 0 -181 11q43 -292 285 -292q164 0 237 123q7 13 24 13q11 0 25 -5l119 -55q16 -10 16 -24q0 -9 -5 -18q-116 -206 -416 -212q-488 10 -490 556zM302 1211q0 6 1 13l284 254l285 -254q1 -7 1 -13 q0 -26 -17 -26q-13 0 -36 15h-3l-229 112l-230 -112h-3q-23 -15 -36 -15q-17 0 -17 26zM334 650q100 -26 195 -26q67 0 133 18q157 43 157 157v6q-23 123 -197 123q-241 -20 -288 -278z" />
<glyph unicode="&#xeb;" horiz-adv-x="1143" d="M132 555q32 532 500 542q330 -6 365 -284q-10 -333 -479 -355q-89 0 -181 11q43 -292 285 -292q164 0 237 123q7 13 24 13q11 0 25 -5l119 -55q16 -10 16 -24q0 -9 -5 -18q-116 -206 -416 -212q-488 10 -490 556zM333 1281v91q0 46 63 46h63q63 0 63 -46v-91 q0 -45 -63 -45h-63q-63 0 -63 45zM334 650q100 -26 195 -26q67 0 133 18q157 43 157 157v6q-23 123 -197 123q-241 -20 -288 -278zM653 1281v91q0 46 63 46h63q63 0 63 -46v-91q0 -45 -63 -45h-63q-63 0 -63 45z" />
<glyph unicode="&#xec;" horiz-adv-x="459" d="M-9 1423q0 45 102 45q111 -1 129 -44l127 -204q2 -5 2 -10q0 -15 -20 -17q-7 -1 -13 -1q-12 0 -22 3q-176 52 -304 220q-1 4 -1 8zM125 40v1008q3 47 73 47h63q70 0 73 -47v-1008q-3 -47 -73 -47h-63q-70 0 -73 47z" />
<glyph unicode="&#xed;" horiz-adv-x="459" d="M111 1210q0 5 2 10l127 204q18 43 129 44q102 0 102 -45q0 -4 -1 -8q-128 -168 -304 -220q-10 -3 -22 -3q-6 0 -13 1q-20 2 -20 17zM125 40v1008q3 47 73 47h63q70 0 73 -47v-1008q-3 -47 -73 -47h-63q-70 0 -73 47z" />
<glyph unicode="&#xee;" horiz-adv-x="459" d="M-55 1211q0 6 1 13l284 254l285 -254q1 -7 1 -13q0 -26 -17 -26q-13 0 -36 15h-3l-229 112l-230 -112h-3q-23 -15 -36 -15q-17 0 -17 26zM125 40v1008q3 47 73 47h63q70 0 73 -47v-1008q-3 -47 -73 -47h-63q-70 0 -73 47z" />
<glyph unicode="&#xef;" horiz-adv-x="459" d="M-24 1281v91q0 46 63 46h63q63 0 63 -46v-91q0 -45 -63 -45h-63q-63 0 -63 45zM125 40v1008q3 47 73 47h63q70 0 73 -47v-1008q-3 -47 -73 -47h-63q-70 0 -73 47zM296 1281v91q0 46 63 46h63q63 0 63 -46v-91q0 -45 -63 -45h-63q-63 0 -63 45z" />
<glyph unicode="&#xf0;" horiz-adv-x="1167" d="M111 522v27q12 558 472 558q81 0 148 -17q-56 105 -124 180l-243 -74q-9 -3 -17 -3q-21 0 -23 28v33q2 37 40 49l155 47q-92 68 -203 90q-32 16 -32 38q0 30 60 71q67 47 121 47q29 0 54 -13q124 -69 220 -166l187 57q9 3 16 3q22 0 23 -28v-33q-1 -38 -39 -49l-112 -34 q72 -92 125 -203q117 -251 117 -522q0 -49 -4 -99q-7 -519 -469 -519q-472 0 -472 532zM312 523q0 -365 271 -365q270 0 270 368v18q-8 386 -270 386q-134 0 -202.5 -101t-68.5 -306z" />
<glyph unicode="&#xf1;" horiz-adv-x="1201" d="M137 40v1008q3 47 63 47h83q60 0 63 -47v-109q85 137 280 157q429 0 438 -523h2v-533q-3 -47 -73 -47h-63q-70 0 -73 47v537q0 314 -218 314q-226 -1 -293 -280v-571q-3 -47 -73 -47h-63q-70 0 -73 47zM359 1237q9 191 124 191q61 0 133 -48t92 -48q46 0 47 80 q0 16 23 16h27q40 0 40 -22q-9 -191 -124 -191q-70 0 -139 51.5t-88 51.5q-43 0 -45 -87q0 -16 -23 -16h-27q-40 0 -40 22z" />
<glyph unicode="&#xf2;" horiz-adv-x="1146" d="M91 552q6 545 482 551q476 -6 482 -551q-6 -545 -482 -551q-476 6 -482 551zM307 552q8 -373 266 -373t266 373q-8 373 -266 373t-266 -373zM334 1423q0 45 102 45q111 -1 129 -44l127 -204q2 -5 2 -10q0 -15 -20 -17q-7 -1 -13 -1q-12 0 -22 3q-176 52 -304 220 q-1 4 -1 8z" />
<glyph unicode="&#xf3;" horiz-adv-x="1146" d="M91 552q6 545 482 551q476 -6 482 -551q-6 -545 -482 -551q-476 6 -482 551zM307 552q8 -373 266 -373t266 373q-8 373 -266 373t-266 -373zM453 1210q0 5 2 10l127 204q18 43 129 44q102 0 102 -45q0 -4 -1 -8q-128 -168 -304 -220q-10 -3 -22 -3q-6 0 -13 1 q-20 2 -20 17z" />
<glyph unicode="&#xf4;" horiz-adv-x="1146" d="M91 552q6 545 482 551q476 -6 482 -551q-6 -545 -482 -551q-476 6 -482 551zM288 1211q0 6 1 13l284 254l285 -254q1 -7 1 -13q0 -26 -17 -26q-13 0 -36 15h-3l-229 112l-230 -112h-3q-23 -15 -36 -15q-17 0 -17 26zM307 552q8 -373 266 -373t266 373q-8 373 -266 373 t-266 -373z" />
<glyph unicode="&#xf5;" horiz-adv-x="1146" d="M91 552q6 545 482 551q476 -6 482 -551q-6 -545 -482 -551q-476 6 -482 551zM307 552q8 -373 266 -373t266 373q-8 373 -266 373t-266 -373zM330 1237q9 191 124 191q61 0 133 -48t92 -48q46 0 47 80q0 16 23 16h27q40 0 40 -22q-9 -191 -124 -191q-70 0 -139 51.5 t-88 51.5q-43 0 -45 -87q0 -16 -23 -16h-27q-40 0 -40 22z" />
<glyph unicode="&#xf6;" horiz-adv-x="1146" d="M91 552q6 545 482 551q476 -6 482 -551q-6 -545 -482 -551q-476 6 -482 551zM307 552q8 -373 266 -373t266 373q-8 373 -266 373t-266 -373zM319 1281v91q0 46 63 46h63q63 0 63 -46v-91q0 -45 -63 -45h-63q-63 0 -63 45zM639 1281v91q0 46 63 46h63q63 0 63 -46v-91 q0 -45 -63 -45h-63q-63 0 -63 45z" />
<glyph unicode="&#xf7;" horiz-adv-x="1100" d="M96 533v102q3 47 33 47h843q30 0 33 -47v-102q-3 -47 -33 -47h-843q-30 0 -33 47zM450 183v101q0 51 50 51h101q50 0 50 -51v-101q0 -50 -50 -50h-101q-50 0 -50 50zM450 884v101q0 50 50 50h101q50 0 50 -50v-101q0 -51 -50 -51h-101q-50 0 -50 51z" />
<glyph unicode="&#xf8;" horiz-adv-x="1186" d="M111 552q6 545 482 551q73 -1 136 -15l67 185q8 20 25 20q5 0 11 -2l49 -19q18 -7 18 -23q0 -6 -2 -13l-66 -182q240 -116 244 -502q-6 -545 -482 -551q-76 1 -140 16l-63 -174q-8 -20 -26 -20q-4 0 -10 1l-49 19q-18 8 -18 24q0 6 2 13l63 172q-237 117 -241 500z M327 555q5 -219 95 -309l245 673q-34 9 -74 9q-258 0 -266 -373zM517 192q35 -10 76 -10q258 0 266 373q-5 220 -97 311z" />
<glyph unicode="&#xf9;" horiz-adv-x="1222" d="M155 505v543q3 47 73 47h63q70 0 73 -47v-539q0 -337 190 -337q207 5 281 262v614q3 47 73 47h63q70 0 73 -47v-1008q-3 -47 -73 -47h-63q-70 0 -73 47v93q-92 -137 -280 -137q-400 0 -400 509zM361 1423q0 45 102 45q111 -1 129 -44l127 -204q2 -5 2 -10q0 -15 -20 -17 q-7 -1 -13 -1q-12 0 -22 3q-176 52 -304 220q-1 4 -1 8z" />
<glyph unicode="&#xfa;" horiz-adv-x="1222" d="M155 505v543q3 47 73 47h63q70 0 73 -47v-539q0 -337 190 -337q207 5 281 262v614q3 47 73 47h63q70 0 73 -47v-1008q-3 -47 -73 -47h-63q-70 0 -73 47v93q-92 -137 -280 -137q-400 0 -400 509zM480 1210q0 5 2 10l127 204q18 43 129 44q102 0 102 -45q0 -4 -1 -8 q-128 -168 -304 -220q-10 -3 -22 -3q-6 0 -13 1q-20 2 -20 17z" />
<glyph unicode="&#xfb;" horiz-adv-x="1222" d="M155 505v543q3 47 73 47h63q70 0 73 -47v-539q0 -337 190 -337q207 5 281 262v614q3 47 73 47h63q70 0 73 -47v-1008q-3 -47 -73 -47h-63q-70 0 -73 47v93q-92 -137 -280 -137q-400 0 -400 509zM314 1211q0 6 1 13l284 254l285 -254q1 -7 1 -13q0 -26 -17 -26 q-13 0 -36 15h-3l-229 112l-230 -112h-3q-23 -15 -36 -15q-17 0 -17 26z" />
<glyph unicode="&#xfc;" horiz-adv-x="1222" d="M155 505v543q3 47 73 47h63q70 0 73 -47v-539q0 -337 190 -337q207 5 281 262v614q3 47 73 47h63q70 0 73 -47v-1008q-3 -47 -73 -47h-63q-70 0 -73 47v93q-92 -137 -280 -137q-400 0 -400 509zM345 1281v91q0 46 63 46h63q63 0 63 -46v-91q0 -45 -63 -45h-63 q-63 0 -63 45zM665 1281v91q0 46 63 46h63q63 0 63 -46v-91q0 -45 -63 -45h-63q-63 0 -63 45z" />
<glyph unicode="&#xfd;" horiz-adv-x="1232" d="M165 502v546q3 47 73 47h63q70 0 73 -47v-542q0 -334 190 -334q207 5 281 262v614q3 47 73 47h63q70 0 73 -47v-957q-7 -517 -547 -528q-42 1 -42 42v103q2 45 36 46q324 6 344 320v59q-92 -137 -280 -137q-400 0 -400 506zM490 1210q0 5 2 10l127 204q18 43 129 44 q102 0 102 -45q0 -4 -1 -8q-128 -168 -304 -220q-10 -3 -22 -3q-6 0 -13 1q-20 2 -20 17z" />
<glyph unicode="&#xfe;" horiz-adv-x="1235" d="M197 -391v1776q3 47 73 47h63q70 0 73 -47v-447q85 141 280 161q438 0 438 -550v-25q-47 -534 -509 -534q-125 0 -209 35v-416q-4 -46 -73 -46h-63q-69 0 -73 46zM406 205q70 -39 206 -39q286 0 315 350v31q0 355 -237 355q-237 -35 -284 -292v-405z" />
<glyph unicode="&#xff;" horiz-adv-x="1232" d="M165 502v546q3 47 73 47h63q70 0 73 -47v-542q0 -334 190 -334q207 5 281 262v614q3 47 73 47h63q70 0 73 -47v-957q-7 -517 -547 -528q-42 1 -42 42v103q2 45 36 46q324 6 344 320v59q-92 -137 -280 -137q-400 0 -400 506zM355 1281v91q0 46 63 46h63q63 0 63 -46v-91 q0 -45 -63 -45h-63q-63 0 -63 45zM675 1281v91q0 46 63 46h63q63 0 63 -46v-91q0 -45 -63 -45h-63q-63 0 -63 45z" />
<glyph unicode="&#x152;" horiz-adv-x="1827" d="M111 708q0 724 613 724q93 0 172 -7h845q37 -3 37 -53v-53q0 -60 -37 -63h-562q136 -155 155 -447h174q42 0 45 -56v-42q-3 -56 -45 -56h-172q-11 -321 -155 -486h560q37 -3 37 -63v-53q0 -50 -37 -53h-845q-79 -7 -172 -7q-613 0 -613 715zM332 708q0 -529 392 -529 q98 0 172 33q171 77 209 334q8 51 10 109q1 26 1 53q0 53 -4 101q-2 33 -7 64q-38 261 -209 339q-74 34 -172 34q-392 0 -392 -538z" />
<glyph unicode="&#x153;" horiz-adv-x="1884" d="M91 552q6 545 482 551q284 -4 400 -198q125 186 400 192q330 -6 365 -284q-10 -333 -479 -355q-89 0 -181 11q43 -292 285 -292q164 0 237 123q7 13 24 13q11 0 25 -5l119 -55q16 -10 16 -24q0 -9 -5 -18q-116 -206 -416 -212q-279 6 -399 186q-118 -181 -391 -184 q-476 6 -482 551zM307 552q8 -373 266 -373t266 373q-8 373 -266 373t-266 -373zM1075 650q100 -26 195 -26q67 0 133 18q157 43 157 157v6q-23 123 -197 123q-241 -20 -288 -278z" />
<glyph unicode="&#x178;" horiz-adv-x="1090" d="M-10 1402q0 3 1 6q4 24 55 24h93q70 0 94 -47l317 -742l317 742q24 47 94 47h93q51 0 55 -24q1 -3 1 -6q0 -7 -4 -17l-450 -1045v-300q-3 -47 -73 -47h-63q-70 0 -73 47v296l-453 1049q-4 10 -4 17zM296 1618v91q0 46 63 46h63q63 0 63 -46v-91q0 -45 -63 -45h-63 q-63 0 -63 45zM616 1618v91q0 46 63 46h63q63 0 63 -46v-91q0 -45 -63 -45h-63q-63 0 -63 45z" />
<glyph unicode="&#x2c6;" horiz-adv-x="771" d="M100 1211q0 6 1 13l284 254l285 -254q1 -7 1 -13q0 -26 -17 -26q-13 0 -36 15h-3l-229 112l-230 -112h-3q-23 -15 -36 -15q-17 0 -17 26z" />
<glyph unicode="&#x2dc;" horiz-adv-x="746" d="M130 1237q9 191 124 191q61 0 133 -48t92 -48q46 0 47 80q0 16 23 16h27q40 0 40 -22q-9 -191 -124 -191q-70 0 -139 51.5t-88 51.5q-43 0 -45 -87q0 -16 -23 -16h-27q-40 0 -40 22z" />
<glyph unicode="&#x2000;" horiz-adv-x="907" />
<glyph unicode="&#x2001;" horiz-adv-x="1815" />
<glyph unicode="&#x2002;" horiz-adv-x="907" />
<glyph unicode="&#x2003;" horiz-adv-x="1815" />
<glyph unicode="&#x2004;" horiz-adv-x="605" />
<glyph unicode="&#x2005;" horiz-adv-x="453" />
<glyph unicode="&#x2006;" horiz-adv-x="302" />
<glyph unicode="&#x2007;" horiz-adv-x="302" />
<glyph unicode="&#x2008;" horiz-adv-x="226" />
<glyph unicode="&#x2009;" horiz-adv-x="363" />
<glyph unicode="&#x200a;" horiz-adv-x="100" />
<glyph unicode="&#x2010;" horiz-adv-x="1005" d="M128 524v102q3 37 43 37h663q40 0 43 -37v-102q-3 -37 -43 -37h-663q-40 0 -43 37z" />
<glyph unicode="&#x2011;" horiz-adv-x="1005" d="M128 524v102q3 37 43 37h663q40 0 43 -37v-102q-3 -37 -43 -37h-663q-40 0 -43 37z" />
<glyph unicode="&#x2012;" horiz-adv-x="1005" d="M128 524v102q3 37 43 37h663q40 0 43 -37v-102q-3 -37 -43 -37h-663q-40 0 -43 37z" />
<glyph unicode="&#x2013;" horiz-adv-x="1242" d="M100 590v62q3 67 73 67h896q70 0 73 -67v-62q-3 -67 -73 -67h-896q-70 0 -73 67z" />
<glyph unicode="&#x2014;" horiz-adv-x="1742" d="M100 590v62q3 67 73 67h1396q70 0 73 -67v-62q-3 -67 -73 -67h-1396q-70 0 -73 67z" />
<glyph unicode="&#x2018;" horiz-adv-x="632" d="M201 1109v14q0 154 152 303q9 6 20 6q8 0 42 -15q11 -5 11 -16q0 -8 -7 -20q-77 -98 -90 -211h53q50 0 50 -50v-101q0 -51 -50 -51h-101q-80 25 -80 141z" />
<glyph unicode="&#x2019;" horiz-adv-x="632" d="M201 1280v101q0 51 50 51h101q80 -25 80 -141v-14q0 -154 -152 -303q-9 -6 -20 -6q-8 0 -42 15q-11 5 -11 16q0 8 7 20q77 98 90 211h-53q-50 0 -50 50z" />
<glyph unicode="&#x201a;" horiz-adv-x="632" d="M200 43v101q0 51 50 51h101q80 -25 80 -141v-14q0 -154 -152 -303q-9 -6 -20 -6q-8 0 -42 15q-11 5 -11 16q0 8 7 20q77 98 90 211h-53q-50 0 -50 50z" />
<glyph unicode="&#x201c;" horiz-adv-x="955" d="M201 1109v14q0 154 152 303q9 6 20 6q8 0 42 -15q11 -5 11 -16q0 -8 -7 -20q-77 -98 -90 -211h53q50 0 50 -50v-101q0 -51 -50 -51h-101q-80 25 -80 141zM524 1109v14q0 154 152 303q9 6 20 6q8 0 42 -15q11 -5 11 -16q0 -8 -7 -20q-77 -98 -90 -211h53q50 0 50 -50v-101 q0 -51 -50 -51h-101q-80 25 -80 141z" />
<glyph unicode="&#x201d;" horiz-adv-x="955" d="M201 1280v101q0 51 50 51h101q80 -25 80 -141v-14q0 -154 -152 -303q-9 -6 -20 -6q-8 0 -42 15q-11 5 -11 16q0 8 7 20q77 98 90 211h-53q-50 0 -50 50zM524 1280v101q0 51 50 51h101q80 -25 80 -141v-14q0 -154 -152 -303q-9 -6 -20 -6q-8 0 -42 15q-11 5 -11 16 q0 8 7 20q77 98 90 211h-53q-50 0 -50 50z" />
<glyph unicode="&#x201e;" horiz-adv-x="955" d="M201 80v101q0 51 50 51h101q80 -25 80 -141v-14q0 -154 -152 -303q-9 -6 -20 -6q-8 0 -42 15q-11 5 -11 16q0 8 7 20q77 98 90 211h-53q-50 0 -50 50zM524 80v101q0 51 50 51h101q80 -25 80 -141v-14q0 -154 -152 -303q-9 -6 -20 -6q-8 0 -42 15q-11 5 -11 16q0 8 7 20 q77 98 90 211h-53q-50 0 -50 50z" />
<glyph unicode="&#x2022;" horiz-adv-x="943" d="M300 630v172q0 86 86 86h171q86 0 86 -86v-172q0 -86 -86 -86h-171q-86 0 -86 86z" />
<glyph unicode="&#x2026;" horiz-adv-x="2048" d="M180 43v101q0 51 50 51h101q51 0 51 -51v-101q0 -50 -51 -50h-101q-50 0 -50 50zM863 43v101q0 51 50 51h101q51 0 51 -51v-101q0 -50 -51 -50h-101q-50 0 -50 50zM1546 43v101q0 51 50 51h101q51 0 51 -51v-101q0 -50 -51 -50h-101q-50 0 -50 50z" />
<glyph unicode="&#x202f;" horiz-adv-x="363" />
<glyph unicode="&#x2039;" horiz-adv-x="523" d="M50 578l334 381q7 1 13 1q26 0 26 -21q0 -16 -15 -44v-4l-152 -313l152 -314v-4q15 -28 15 -44q0 -21 -26 -21q-6 0 -13 1z" />
<glyph unicode="&#x203a;" horiz-adv-x="523" d="M100 216q0 16 15 44v4l152 314l-152 313v4q-15 28 -15 44q0 21 26 21q6 0 13 -1l334 -381l-334 -382q-7 -1 -13 -1q-26 0 -26 21z" />
<glyph unicode="&#x205f;" horiz-adv-x="453" />
<glyph unicode="&#x20ac;" horiz-adv-x="1166" d="M10 596l5 42q6 26 38 26h77q-1 24 -1 49q0 29 2 57h-67q-32 0 -32 26l5 42q6 26 38 26h62q60 568 534 568q309 0 439 -242q1 -4 1 -9q0 -29 -62 -65q-47 -27 -77 -27q-16 0 -27 8q-89 149 -253 149q-284 0 -332 -382h360q32 0 32 -26l-5 -42q-6 -26 -38 -26h-357 q-2 -28 -2 -57q0 -25 1 -49h347q32 0 32 -26l-5 -42q-6 -26 -38 -26h-328q45 -391 333 -391q164 0 253 149q11 8 27 8q30 0 77 -27q62 -36 62 -65q0 -5 -1 -9q-130 -242 -439 -242q-477 0 -534 577h-95q-32 0 -32 26z" />
<glyph unicode="&#x2122;" horiz-adv-x="1800" d="M50 1343v32q3 53 55 53h879q64 0 83 -43l214 -553l213 557q18 43 82 43h97q67 0 76 -47v-809q0 -47 -71 -47h-41q-68 0 -76 47v491l-187 -489q-18 -37 -77 -37h-31q-60 0 -77 37l-190 492v-494q-9 -47 -76 -47h-41q-71 0 -71 47v713h-297v-713q-4 -47 -74 -47h-41 q-70 0 -73 47v713h-221q-52 0 -55 54z" />
<glyph unicode="&#xe000;" horiz-adv-x="1095" d="M0 0v1095h1095v-1095h-1095z" />
<glyph unicode="&#xfb03;" horiz-adv-x="1960" d="M60 1000v40q0 46 29 48h137v136q32 363 389 363q66 0 110 -17q43 -10 43 -32q0 -21 -47 -116q-11 -30 -30 -30q-4 0 -7 2q-25 6 -66 7q-180 0 -183 -235v-78h489v136q32 363 389 363q66 0 110 -17q43 -10 43 -32q0 -21 -47 -116q-11 -30 -30 -30q-4 0 -7 2q-25 6 -66 7 q-180 0 -183 -235v-78h174q29 -2 29 -48v-40q0 -45 -29 -47h-174v-913q-3 -47 -73 -47h-63q-70 0 -73 47v913h-489v-913q-3 -47 -73 -47h-63q-70 0 -73 47v913h-137q-29 2 -29 47zM1573 40v1008q3 47 73 47h63q70 0 73 -47v-1008q-3 -47 -73 -47h-63q-70 0 -73 47z M1573 1342v101q0 51 70 51h69q71 0 71 -51v-101q0 -50 -71 -50h-69q-70 0 -70 50z" />
<glyph unicode="&#xfb04;" horiz-adv-x="2055" d="M60 1000v40q0 46 29 48h137v136q32 363 389 363q66 0 110 -17q43 -10 43 -32q0 -21 -47 -116q-11 -30 -30 -30q-4 0 -7 2q-25 6 -66 7q-180 0 -183 -235v-78h489v136q32 363 389 363q66 0 110 -17q43 -10 43 -32q0 -21 -47 -116q-11 -30 -30 -30q-4 0 -7 2q-25 6 -66 7 q-180 0 -183 -235v-78h174q29 -2 29 -48v-40q0 -45 -29 -47h-174v-913q-3 -47 -73 -47h-63q-70 0 -73 47v913h-489v-913q-3 -47 -73 -47h-63q-70 0 -73 47v913h-137q-29 2 -29 47zM1543 320v1165q3 47 73 47h63q70 0 73 -47v-1154q0 -136 121 -136q54 0 79 10q2 1 3 1 q53 0 53 -74v-5q-3 -112 -41 -121q-42 -10 -95 -10q-320 0 -329 324z" />
</font>
</defs>
</svg>
